<svg width="30" height="30" viewBox="0 0 30 30" fill="none" xmlns="http://www.w3.org/2000/svg">
<circle cx="15" cy="15" r="14.325" fill="black" stroke="white" stroke-width="1.35"/>
<path d="M18.8252 8.40002C18.1952 8.10002 16.4377 7.55002 15.6377 7.31252C15.9002 7.31252 16.4627 7.16252 17.3627 7.31252C18.0827 7.43252 18.6377 8.08752 18.8252 8.40002Z" fill="white"/>
<path d="M5.1001 16.4626C4.8301 19.8826 3.9876 22.1876 3.6001 22.9126V23.3251C3.6001 23.9626 4.8376 24.9376 7.1251 27.0751C9.4126 29.2126 17.7376 30.0751 17.4751 28.6126C17.2126 27.1501 17.7376 25.2751 18.5626 23.5501C19.3876 21.8251 22.1251 18.9376 23.2126 17.8501C24.3001 16.7626 25.8376 15.1126 26.1001 13.6876C26.3626 12.2626 24.8626 10.9876 23.5126 10.5751C22.1626 10.1626 20.7376 9.60009 19.8751 9.30009C19.0126 9.00009 18.1126 8.47509 16.0126 7.83759C13.9126 7.20009 12.7876 7.31259 12.5626 7.31259C12.3376 7.31259 10.4251 7.38759 8.0251 8.96259C5.6251 10.5376 5.4376 12.1876 5.1001 16.4626Z" fill="white"/>
<circle cx="13.0499" cy="11.6251" r="3" fill="white" stroke="black" stroke-width="0.45"/>
<circle cx="22.6501" cy="14.25" r="0.675" fill="black"/>
<path d="M21.3749 17.3626C18.1349 18.5026 15.8499 17.6126 15.1124 17.0251C14.9249 17.3626 16.5749 18.2626 17.5124 18.2626C21.0373 18.6376 25.6124 16.3501 26.3999 14.4751C26.0749 14.9626 24.6149 16.2226 21.3749 17.3626Z" fill="black"/>
<circle cx="13.0501" cy="11.625" r="1.95" fill="black"/>
</svg>
