<svg width="30" height="21" viewBox="0 0 30 21" fill="none" xmlns="http://www.w3.org/2000/svg">
<path fill-rule="evenodd" clip-rule="evenodd" d="M20.2238 18.7029C20.963 19.6392 21.8501 20.6988 21.8501 20.6988C27.2958 20.5263 29.3903 16.9534 29.3903 16.9534C29.3903 9.01888 25.842 2.58753 25.842 2.58753C22.2936 -0.073719 18.9178 0.000204776 18.9178 0.000204776L18.5728 0.394464C22.7618 1.67581 24.7085 3.5239 24.7085 3.5239C22.1458 2.11935 19.6324 1.4294 17.2915 1.15834C15.5173 0.961213 13.8171 1.01049 12.3139 1.20762C12.1849 1.20762 12.0746 1.2264 11.9503 1.24757C11.9322 1.25065 11.9138 1.25378 11.895 1.25691C11.0326 1.33083 8.9381 1.65117 6.30149 2.8093C5.38977 3.2282 4.84766 3.5239 4.84766 3.5239C4.84766 3.5239 6.89288 1.57724 11.3283 0.2959L11.0819 0.000204776C11.0819 0.000204776 7.70604 -0.073719 4.15771 2.58753C4.15771 2.58753 0.609375 9.01888 0.609375 16.9534C0.609375 16.9534 2.67924 20.5263 8.12494 20.6988C8.12494 20.6988 9.03667 19.59 9.7759 18.6536C6.64647 17.7172 5.46369 15.7459 5.46369 15.7459C5.46369 15.7459 5.7101 15.9184 6.15365 16.1648C6.17829 16.1895 6.20293 16.2141 6.25221 16.2388C6.28917 16.2634 6.32614 16.2819 6.3631 16.3004C6.40006 16.3188 6.43702 16.3373 6.47398 16.362C7.09001 16.7069 7.70604 16.978 8.27279 17.1998C9.28308 17.594 10.4905 17.9883 11.895 18.2593C13.7431 18.6043 15.9116 18.7275 18.2771 18.284C19.4353 18.0868 20.618 17.7419 21.8501 17.2244C22.7125 16.9041 23.6735 16.4359 24.6838 15.7706C24.6838 15.7706 23.4518 17.7912 20.2238 18.7029ZM7.87844 11.9266C7.87844 10.4235 8.98729 9.19146 10.3918 9.19146C11.7964 9.19146 12.9299 10.4235 12.9052 11.9266C12.9052 13.4297 11.7964 14.6618 10.3918 14.6618C9.01194 14.6618 7.87844 13.4297 7.87844 11.9266ZM16.8725 11.9266C16.8725 10.4235 17.9813 9.19146 19.3859 9.19146C20.7904 9.19146 21.8993 10.4235 21.8993 11.9266C21.8993 13.4297 20.7904 14.6618 19.3859 14.6618C18.006 14.6618 16.8725 13.4297 16.8725 11.9266Z" fill="white"/>
</svg>
