<svg width="30" height="17" viewBox="0 0 30 17" fill="none" xmlns="http://www.w3.org/2000/svg">
<path d="M16.8606 8.24707C16.8606 12.8019 13.1933 16.4944 8.6694 16.4944C4.14549 16.4944 0.478516 12.803 0.478516 8.24707C0.478516 3.69117 4.14576 0 8.6694 0C13.193 0 16.8606 3.69228 16.8606 8.24707ZM25.8464 8.24707C25.8464 12.5348 24.0126 16.0104 21.7508 16.0104C19.489 16.0104 17.6552 12.5337 17.6552 8.24707C17.6552 3.96041 19.489 0.483682 21.7508 0.483682C24.0126 0.483682 25.8464 3.96041 25.8464 8.24707ZM29.5217 8.24707C29.5217 12.0887 28.8767 15.2027 28.0812 15.2027C27.2857 15.2027 26.6407 12.0876 26.6407 8.24707C26.6407 4.40654 27.2857 1.29139 28.0815 1.29139C28.8772 1.29139 29.5217 4.4057 29.5217 8.24707Z" fill="white"/>
</svg>
