<svg width="28" height="22" viewBox="0 0 28 22" fill="none" xmlns="http://www.w3.org/2000/svg">
<path fill-rule="evenodd" clip-rule="evenodd" d="M21.0224 21.7568C21.3766 22.0076 21.8331 22.0703 22.2401 21.9163C22.6471 21.7612 22.9463 21.4136 23.0365 20.9923C23.9924 16.5 26.3112 5.12941 27.1813 1.04295C27.2473 0.734955 27.1373 0.414859 26.8953 0.209161C26.6533 0.00346308 26.3178 -0.0559364 26.0186 0.0551624C21.4063 1.76234 7.20217 7.09178 1.39644 9.24006C1.02794 9.37646 0.788142 9.73066 0.800242 10.119C0.813442 10.5083 1.07524 10.846 1.45254 10.9593C4.05621 11.7381 7.47387 12.8216 7.47387 12.8216C7.47387 12.8216 9.07105 17.6451 9.90374 20.098C10.0082 20.406 10.2491 20.648 10.567 20.7316C10.8838 20.8141 11.2226 20.7272 11.4591 20.5039C12.7967 19.2411 14.8647 17.2887 14.8647 17.2887C14.8647 17.2887 18.7938 20.1695 21.0224 21.7568ZM8.91155 12.2122L10.7584 18.304L11.1687 14.4463C11.1687 14.4463 18.3044 8.01027 22.3721 4.34182C22.4909 4.23402 22.5074 4.05362 22.4084 3.92712C22.3105 3.80062 22.1301 3.77092 21.9948 3.85672C17.2803 6.86739 8.91155 12.2122 8.91155 12.2122Z" fill="white"/>
</svg>
