<svg width="29" height="24" viewBox="0 0 29 24" fill="none" xmlns="http://www.w3.org/2000/svg">
<path d="M26.0846 5.75773C26.4564 13.9701 20.3322 23.127 9.48912 23.127C6.19136 23.127 3.12306 22.1611 0.538574 20.5034C3.63711 20.868 6.72854 20.0089 9.18318 18.0861C6.62715 18.038 4.47134 16.35 3.72961 14.0306C4.64565 14.2049 5.54569 14.1533 6.36568 13.931C3.55707 13.3671 1.62004 10.8378 1.68229 8.13233C2.46849 8.5699 3.3703 8.83315 4.32548 8.86339C1.72676 7.12557 0.99037 3.69263 2.5183 1.06723C5.39805 4.59978 9.70079 6.92458 14.5531 7.16826C13.7011 3.51654 16.4742 0 20.2433 0C21.9206 0 23.4397 0.707933 24.5033 1.84454C25.8338 1.58307 27.0843 1.09747 28.2138 0.428673C27.7762 1.79296 26.8513 2.93668 25.6471 3.65884C26.8281 3.51654 27.9541 3.20348 29 2.73924C28.2191 3.90608 27.2283 4.93418 26.0846 5.75773Z" fill="white"/>
</svg>
