<svg width="29" height="33" viewBox="0 0 29 33" fill="none" xmlns="http://www.w3.org/2000/svg">
<path d="M14.2219 15.6461C14.9057 16.8553 13.3764 17.2302 12.6587 17.2992C11.5712 17.4054 11.3461 16.7757 11.5585 15.9847C11.6282 15.7015 11.7829 15.4467 12.0016 15.255C12.2205 15.0631 12.4926 14.9435 12.7813 14.9124C13.0658 14.8862 13.3519 14.9411 13.6067 15.0709C13.8615 15.2007 14.0748 15.4001 14.2219 15.6461Z" fill="white"/>
<path d="M18.4904 13.4084C17.6956 19.5154 28.4105 18.2446 28.2065 23.1052C29.2635 21.7249 29.7179 17.975 26.6064 16.0448C23.8341 14.3237 20.2216 15.2654 18.4904 13.4084Z" fill="white"/>
<path d="M24.6621 11.1055C24.5923 11.0407 24.5204 10.977 24.4507 10.9133C24.5215 10.9781 24.5923 11.046 24.6621 11.1055Z" fill="white"/>
<path d="M27.1521 15.5572L27.1458 15.5476C27.0491 15.3671 26.9388 15.1943 26.816 15.0306C26.4548 14.5389 25.9367 14.1866 25.3481 14.0325C24.9562 13.9309 24.5555 13.8677 24.1515 13.8435C23.7425 13.8138 23.325 13.7968 22.9034 13.7745C22.0579 13.7278 21.1922 13.6407 20.3467 13.3987C20.1353 13.3381 19.924 13.2723 19.72 13.1927C19.6143 13.1545 19.516 13.1131 19.4114 13.0685C19.3068 13.0239 19.2 12.9729 19.0943 12.9187C18.6967 12.7 18.3284 12.4314 17.9983 12.1193C17.3472 11.511 16.8357 10.8208 16.3231 10.1519C15.8399 9.48045 15.3212 8.83542 14.7695 8.21957C14.225 7.61626 13.5815 7.11134 12.8671 6.72679C12.1272 6.35245 11.3236 6.12191 10.4985 6.04729C11.3545 5.95393 12.2203 6.06001 13.0288 6.35731C13.8445 6.67546 14.5903 7.15125 15.2239 7.75773C15.6376 8.14743 16.0259 8.56341 16.3865 9.00312C19.071 8.47226 21.2483 8.94367 22.9213 9.85887L22.9594 9.87798C23.4919 10.1681 23.991 10.5164 24.4475 10.9163C24.5204 10.9801 24.5924 11.0438 24.6589 11.1085C25.0152 11.4375 25.3469 11.7924 25.6513 12.1703L25.6745 12.201C26.6628 13.4581 27.1511 14.7651 27.1521 15.5572Z" fill="white"/>
<path d="M27.1512 15.5561L27.145 15.5435L27.1512 15.5561Z" fill="white"/>
<path d="M10.6349 6.83398C11.3198 6.93379 12.0184 7.20772 12.4686 7.73009C12.9189 8.25245 13.0848 8.93196 13.2148 9.57854C13.3204 10.0797 13.404 10.5904 13.6006 11.065C13.6956 11.2964 13.8352 11.4992 13.9514 11.7179C14.0476 11.8994 14.223 12.063 14.2907 12.2573C14.3029 12.2852 14.3074 12.3158 14.3038 12.346C14.3003 12.3762 14.2889 12.405 14.2706 12.4293C14.0318 12.6947 13.3871 12.3995 13.144 12.2806C12.7237 12.0714 12.3474 11.7831 12.0353 11.4313C11.0598 10.343 10.5556 8.77694 10.5863 7.35104C10.593 7.17793 10.6093 7.00531 10.6349 6.83398Z" fill="white"/>
<path d="M22.0896 19.1057C20.6099 23.2539 27.3213 26.0367 24.8069 30.2539C27.3868 29.1836 28.6118 25.9507 27.5412 23.3855C26.6048 21.1337 23.8356 20.3129 22.0896 19.1057Z" fill="white"/>
<path d="M13.2134 24.5306C13.6165 24.2253 14.0575 23.9737 14.525 23.7821C14.9979 23.5919 15.4887 23.4496 15.9898 23.3574C16.9844 23.1673 17.9684 23.1207 18.7949 22.7862C19.2032 22.626 19.579 22.3922 19.9036 22.0961C20.2178 21.8029 20.4583 21.4389 20.6054 21.0343C20.756 20.6074 20.8172 20.1537 20.785 19.7018C20.7477 19.2165 20.6383 18.7395 20.4605 18.2866C20.8289 18.6715 21.0973 19.1418 21.2416 19.6556C21.3859 20.1696 21.4019 20.7113 21.2881 21.2328C21.1588 21.785 20.8797 22.2903 20.4817 22.6927C20.0878 23.0826 19.6127 23.3799 19.0908 23.5634C18.5928 23.7388 18.0733 23.846 17.5466 23.8819C17.0393 23.9244 16.5489 23.936 16.067 23.9646C15.0926 24.0058 14.1302 24.1965 13.2134 24.5306Z" fill="white"/>
<path d="M22.68 31.8224C22.5309 31.9414 22.3819 32.0678 22.2181 32.1781C22.0533 32.2873 21.8804 32.3838 21.7013 32.467C21.3281 32.6498 20.9179 32.7432 20.5028 32.7398C19.3782 32.7186 18.5834 31.8777 18.1184 30.9274C17.8013 30.2798 17.5826 29.5801 17.2062 28.9633C16.6683 28.081 15.7477 27.3707 14.6697 27.5023C14.23 27.5575 13.8179 27.756 13.5737 28.1394C12.931 29.1406 13.8538 30.5431 15.0301 30.3445C15.1301 30.3292 15.228 30.3022 15.3218 30.2638C15.4153 30.2239 15.5024 30.1706 15.5808 30.1056C15.745 29.9682 15.8689 29.7884 15.9391 29.5855C16.0163 29.3739 16.0335 29.1448 15.9887 28.9239C15.9404 28.6931 15.8048 28.4902 15.6103 28.3581C15.8365 28.4644 16.0126 28.6547 16.1018 28.889C16.1943 29.1299 16.2181 29.3921 16.1705 29.6459C16.1243 29.9104 16.0083 30.1576 15.8344 30.3616C15.7421 30.4664 15.6353 30.5576 15.5173 30.6323C15.4004 30.7061 15.2751 30.7656 15.1442 30.8096C14.8787 30.9008 14.5962 30.9301 14.3177 30.8956C13.9268 30.8397 13.5581 30.679 13.2503 30.4306C12.8867 30.1417 12.6162 29.7638 12.2874 29.4389C11.9106 29.0417 11.4661 28.7156 10.9748 28.4759C10.636 28.3264 10.2814 28.216 9.91785 28.1468C9.73498 28.1086 9.55009 28.081 9.3651 28.0576C9.28054 28.0492 8.86623 27.9567 8.80811 28.0108C9.37974 27.4822 10.003 27.0127 10.6682 26.6094C11.3513 26.2021 12.0848 25.887 12.8498 25.6719C13.6428 25.4477 14.4723 25.3838 15.2901 25.484C15.7111 25.5347 16.1234 25.6419 16.5161 25.8025C16.9276 25.9676 17.3074 26.2033 17.6385 26.499C17.9663 26.8091 18.2312 27.1802 18.4185 27.5916C18.5876 27.9766 18.7139 28.3793 18.7947 28.7923C19.0358 30.0271 18.9469 31.9414 20.5566 32.2238C20.6405 32.2401 20.7252 32.2522 20.8103 32.2599L21.0734 32.2663C21.2544 32.2533 21.4342 32.2274 21.6114 32.1887C21.9786 32.102 22.3366 31.9793 22.68 31.8224Z" fill="white"/>
<path d="M13.3268 30.4767L13.2847 30.4436L13.3268 30.4767Z" fill="white"/>
<path d="M11.8822 13.0494C11.8236 13.2757 11.7212 13.4882 11.581 13.6748C11.32 14.0151 10.9745 14.2805 10.5791 14.4445C10.2235 14.5984 9.84695 14.6979 9.46194 14.7397C9.3784 14.7503 9.29179 14.7566 9.2083 14.763C8.96447 14.7723 8.73001 14.8598 8.53926 15.0126C8.3485 15.1655 8.21147 15.3757 8.14822 15.6124C8.11926 15.7302 8.09772 15.8497 8.08374 15.9703C8.04569 16.2823 8.03936 16.6072 8.00554 17C7.92272 17.6686 7.73023 18.3186 7.43586 18.9239C7.05327 19.7329 6.62417 20.3848 6.72352 21.317C6.78904 21.9222 7.09765 22.3278 7.50773 22.7461C8.24756 23.5063 9.90377 23.846 9.53387 25.719C9.31081 26.8369 7.46546 28.0102 4.87181 28.42C5.1297 28.3806 4.541 27.3837 4.50401 27.32C4.22605 26.8826 3.92166 26.4706 3.70077 25.9961C3.26743 25.0756 3.06662 24.0106 3.24419 23.0019C3.43126 21.9403 4.21337 21.127 4.86337 20.3158C5.63702 19.3508 6.44871 18.0863 6.62839 16.8334C6.67066 16.5298 6.70026 16.1496 6.7679 15.7716C6.83239 15.3529 6.96297 14.9471 7.15472 14.5698C7.28561 14.3222 7.45794 14.0992 7.66415 13.9105C7.77167 13.8103 7.8426 13.6767 7.8656 13.5311C7.88859 13.3856 7.86232 13.2365 7.79098 13.1078L3.65638 5.6375L9.59509 12.9994C9.66273 13.0848 9.74819 13.1541 9.84548 13.2025C9.94278 13.2509 10.0495 13.2772 10.158 13.2795C10.2666 13.2819 10.3742 13.2602 10.4736 13.216C10.5728 13.1718 10.6612 13.1062 10.7324 13.0239C10.8076 12.9357 10.8502 12.8242 10.8531 12.7082C10.856 12.5922 10.819 12.4787 10.7482 12.3869C10.3604 11.889 9.95022 11.3814 9.55281 10.8824L8.05839 9.0244L5.05889 5.31473L0.96875 0.15918L5.4436 4.98242L8.63651 8.52857L10.2292 10.3059C10.7577 10.9037 11.2862 11.4823 11.8146 12.1108L11.9013 12.217L11.9203 12.3815C11.946 12.6047 11.9332 12.8307 11.8822 13.0494Z" fill="white"/>
<path d="M13.2515 30.4258C12.9646 30.2031 12.7092 29.9419 12.4927 29.6497C12.725 29.9279 12.9787 30.1874 13.2515 30.4258Z" fill="white"/>
</svg>
