<svg width="90" height="90" viewBox="0 0 90 90" fill="none" xmlns="http://www.w3.org/2000/svg">
<rect width="90" height="90" rx="45" fill="black"/>
<path fill-rule="evenodd" clip-rule="evenodd" d="M43.417 17.66L56.9075 25.1351C57.4329 25.4268 57.4329 26.15 56.9075 26.4417L43.417 33.9168C43.1764 34.0505 42.8726 34.0505 42.632 33.9168L29.1416 26.4417C28.6162 26.15 28.6162 25.4268 29.1416 25.1351L42.632 17.66C42.8789 17.5202 43.1764 17.5202 43.417 17.66Z" fill="white"/>
<path fill-rule="evenodd" clip-rule="evenodd" d="M60.0238 29.3181V44.2743C60.0238 44.5417 59.8719 44.791 59.6313 44.9308L45.8371 52.5577C45.3117 52.8494 44.6597 52.4847 44.6597 51.9014V36.9512C44.6597 36.6838 44.8116 36.4346 45.0521 36.2948L58.84 28.6557C59.3655 28.37 60.0238 28.7346 60.0238 29.3181Z" fill="white"/>
<path fill-rule="evenodd" clip-rule="evenodd" d="M63.8285 46.04L45.0521 56.4141C44.8116 56.5478 44.6597 56.7969 44.6597 57.0704V72.0267C44.6597 72.61 45.3117 72.9686 45.8371 72.683L64.6073 62.303C64.8478 62.1693 64.9998 61.92 64.9998 61.6465V46.6904C65.006 46.113 64.3477 45.7483 63.8285 46.04Z" fill="white"/>
<path fill-rule="evenodd" clip-rule="evenodd" d="M25.9863 44.2631V29.3129C25.9863 28.7295 26.6384 28.3709 27.1638 28.6565L40.9454 36.2957C41.186 36.4294 41.3379 36.6785 41.3379 36.952V51.9022C41.3379 52.4857 40.6858 52.8441 40.1604 52.5585L26.3788 44.9133C26.1383 44.7796 25.9863 44.5305 25.9863 44.2631Z" fill="white"/>
<path fill-rule="evenodd" clip-rule="evenodd" d="M25.9863 49.4309V64.3871C25.9863 64.6544 26.1383 64.9037 26.3788 65.0433L40.1604 72.6765C40.6858 72.9683 41.3379 72.6036 41.3379 72.0203V57.07C41.3379 56.8026 41.186 56.5533 40.9454 56.4137L27.1638 48.7745C26.6384 48.4888 25.9863 48.8474 25.9863 49.4309Z" fill="white"/>
</svg>
