<svg width="100" height="100" viewBox="0 0 100 100" fill="none" xmlns="http://www.w3.org/2000/svg">
<rect width="100" height="100" rx="50" fill="black"/>
<path d="M32 27H54.75C59.0833 27 62.3333 28.0781 64.7407 29.875C67.3889 32.0313 68.8333 35.1458 68.8333 38.9792C68.8333 43.4115 67.0278 46.1667 63.4167 47.8438V48.0833C68.2315 49.6406 71 53.9531 71 59.1042C71 64.0156 69.0741 67.849 65.9444 70.2448C63.2963 72.1615 59.9259 73 55.3518 73H32V27ZM52.463 44.9688C54.8704 44.9688 56.6759 43.651 56.6759 40.8958C56.6759 38.2604 54.8704 36.9427 52.3426 36.9427H44.5185V44.849H52.463V44.9688ZM53.5463 62.8177C56.3148 62.8177 58.3611 61.1406 58.3611 58.1458C58.3611 54.9115 56.1944 53.474 53.5463 53.474H44.6389V62.9375H53.5463V62.8177Z" fill="white"/>
</svg>
