<svg width="100" height="100" viewBox="0 0 100 100" fill="none" xmlns="http://www.w3.org/2000/svg">
<rect width="100" height="100" rx="50" fill="black"/>
<circle cx="50" cy="50" r="25.785" fill="black" stroke="white" stroke-width="2.43"/>
<path d="M56.8854 38.1197C55.7515 37.5797 52.5879 36.5897 51.1479 36.1622C51.6204 36.1622 52.6329 35.8922 54.2529 36.1622C55.5489 36.3782 56.5479 37.5572 56.8854 38.1197Z" fill="white"/>
<path d="M32.18 52.6325C31.694 58.7885 30.1775 62.9375 29.48 64.2425V64.985C29.48 66.1325 31.7075 67.8875 35.825 71.735C39.9425 75.5825 54.9275 77.135 54.455 74.5025C53.9825 71.87 54.9275 68.495 56.4125 65.39C57.8975 62.285 62.825 57.0875 64.7825 55.13C66.74 53.1725 69.5075 50.2025 69.98 47.6375C70.4525 45.0725 67.7525 42.7775 65.3225 42.035C62.8925 41.2925 60.3275 40.28 58.775 39.74C57.2225 39.2 55.6025 38.255 51.8225 37.1075C48.0425 35.96 46.0175 36.1625 45.6125 36.1625C45.2075 36.1625 41.765 36.2975 37.445 39.1325C33.125 41.9675 32.7875 44.9375 32.18 52.6325Z" fill="white"/>
<circle cx="46.4896" cy="43.9251" r="5.4" fill="white" stroke="black" stroke-width="0.81"/>
<circle cx="63.7702" cy="48.6498" r="1.215" fill="black"/>
<path d="M61.4748 54.2526C55.6428 56.3046 51.5298 54.7026 50.2023 53.6451C49.8647 54.2526 52.8348 55.8726 54.5223 55.8726C60.8672 56.5476 69.1023 52.4301 70.5197 49.0551C69.9347 49.9326 67.3068 52.2006 61.4748 54.2526Z" fill="black"/>
<circle cx="46.49" cy="43.925" r="3.51" fill="black"/>
</svg>
