<svg width="100" height="100" viewBox="0 0 100 100" fill="none" xmlns="http://www.w3.org/2000/svg">
<rect width="100" height="100" rx="50" fill="black"/>
<path fill-rule="evenodd" clip-rule="evenodd" d="M30.8889 28C28.7411 28 27 29.7411 27 31.8889V68.1867C27 70.3344 28.7411 72.0756 30.8889 72.0756H70.1111C72.2589 72.0756 74 70.3344 74 68.1867V31.8889C74 29.7411 72.2589 28 70.1111 28H30.8889ZM62.5115 40.8467C62.5115 43.6732 60.2202 45.9645 57.3938 45.9645C54.5673 45.9645 52.276 43.6732 52.276 40.8467C52.276 38.0203 54.5673 35.729 57.3938 35.729C60.2202 35.729 62.5115 38.0203 62.5115 40.8467ZM44.2199 46.3238C44.9219 46.6152 45.1617 46.8872 48.1554 50.7873L48.3257 51.0092C53.5149 57.7694 53.9476 58.333 54.5114 58.6886C54.5627 58.7209 54.6151 58.7515 54.6722 58.7849L54.6926 58.7968C55.0812 59.0242 55.3224 59.0856 55.8267 59.0856C56.6656 59.0856 57.1156 58.8208 58.5535 57.4811C60.147 55.9966 61.0509 55.6591 62.1278 56.1467C62.7604 56.433 63.3468 57.1454 65.6319 60.4031C68.473 64.4534 68.5643 64.5937 68.7069 65.1245C68.8166 65.5337 68.8066 65.6475 68.6287 66.008C68.5148 66.2388 68.2591 66.5174 68.0508 66.6376C67.6798 66.8519 67.5591 66.8534 51.0758 66.8534C34.9197 66.8534 34.4634 66.848 34.0616 66.6491C33.4386 66.341 33.2272 65.9302 33.2731 65.1172C33.3094 64.4766 33.4831 64.1017 36.9724 57.1374C41.7604 47.5807 42.3087 46.6206 43.1755 46.2779C43.5566 46.1274 43.7693 46.1367 44.2199 46.3238Z" fill="white"/>
</svg>
