<svg width="100" height="100" viewBox="0 0 100 100" fill="none" xmlns="http://www.w3.org/2000/svg">
<rect width="100" height="100" rx="50" fill="black"/>
<path fill-rule="evenodd" clip-rule="evenodd" d="M59.4382 64.4281C60.7738 66.1199 62.3766 68.0344 62.3766 68.0344C72.2159 67.7227 76.0002 61.2671 76.0002 61.2671C76.0002 46.9311 69.5891 35.311 69.5891 35.311C63.178 30.5027 57.0785 30.6362 57.0785 30.6362L56.4552 31.3486C64.0239 33.6637 67.5411 37.0028 67.5411 37.0028C62.9109 34.4651 58.3697 33.2185 54.1401 32.7287C50.9346 32.3726 47.8626 32.4616 45.1468 32.8178C44.9136 32.8178 44.7143 32.8517 44.4897 32.89C44.457 32.8955 44.4238 32.9012 44.3899 32.9068C42.8316 33.0404 39.0473 33.6192 34.2835 35.7117C32.6362 36.4686 31.6567 37.0028 31.6567 37.0028C31.6567 37.0028 35.352 33.4856 43.3659 31.1705L42.9207 30.6362C42.9207 30.6362 36.8212 30.5027 30.4101 35.311C30.4101 35.311 23.999 46.9311 23.999 61.2671C23.999 61.2671 27.7388 67.7227 37.5781 68.0344C37.5781 68.0344 39.2254 66.0309 40.561 64.3391C34.9068 62.6472 32.7698 59.0855 32.7698 59.0855C32.7698 59.0855 33.215 59.3972 34.0164 59.8424C34.0609 59.8869 34.1054 59.9314 34.1945 59.9759C34.2612 60.0205 34.328 60.0539 34.3948 60.0873C34.4616 60.1206 34.5284 60.154 34.5952 60.1986C35.7082 60.8219 36.8212 61.3116 37.8452 61.7123C39.6706 62.4246 41.8522 63.137 44.3899 63.6267C47.729 64.25 51.6469 64.4726 55.921 63.6712C58.0135 63.3151 60.1505 62.6918 62.3766 61.7568C63.9349 61.178 65.6712 60.3321 67.4966 59.13C67.4966 59.13 65.2705 62.7808 59.4382 64.4281ZM37.1329 52.1848C37.1329 49.4689 39.1364 47.2429 41.6741 47.2429C44.2119 47.2429 46.2598 49.4689 46.2153 52.1848C46.2153 54.9006 44.2119 57.1267 41.6741 57.1267C39.1809 57.1267 37.1329 54.9006 37.1329 52.1848ZM53.3833 52.1848C53.3833 49.4689 55.3868 47.2429 57.9245 47.2429C60.4622 47.2429 62.4657 49.4689 62.4657 52.1848C62.4657 54.9006 60.4622 57.1267 57.9245 57.1267C55.4313 57.1267 53.3833 54.9006 53.3833 52.1848Z" fill="white"/>
</svg>
