<svg width="90" height="90" viewBox="0 0 90 90" fill="none" xmlns="http://www.w3.org/2000/svg">
<rect width="90" height="90" rx="45" fill="black"/>
<path d="M63.355 24H27.5303V25.7912L29.4111 25.9704C30.8441 26.239 31.8293 26.7764 32.4562 27.5825C33.0832 28.4781 33.4414 29.9111 33.531 31.8814C34.2475 41.5541 34.2475 50.5998 33.531 58.929C33.3518 60.8994 32.9936 62.3324 32.4562 63.228C31.8293 64.1236 30.8441 64.661 29.4111 64.8401L27.5303 65.1088V66.9H50.6372V65.1088L48.2191 64.9296C46.7861 64.7505 45.8009 64.1236 45.174 63.3175C44.547 62.4219 44.1888 60.9889 44.0992 59.0186C43.8305 55.4361 43.6514 51.3163 43.6514 46.7486L48.4877 46.8382C51.085 46.9278 52.8763 48.8981 53.7719 52.8388H55.5631V38.2403H53.7719C52.8763 42.0914 51.1746 44.0618 48.4877 44.1514L43.6514 44.2409C43.6514 36.1804 43.8305 30.4484 44.0992 26.9555H51.1746C56.19 26.9555 59.5934 30.1797 61.5637 36.6282L63.7132 36.0013L63.355 24Z" fill="white"/>
</svg>
