<svg width="100" height="100" viewBox="0 0 100 100" fill="none" xmlns="http://www.w3.org/2000/svg">
<path d="M50 0C22.3875 0 0 22.3875 0 50C0 77.6125 22.3875 100 50 100C77.6125 100 100 77.6125 100 50C100 22.3875 77.6125 0 50 0ZM59.2417 77.5667C57.7667 77.8542 57.2917 76.9458 57.2917 76.1667V68.1625C57.2917 65.4417 56.3375 63.6667 55.2875 62.7625C61.7875 62.0417 68.6125 59.575 68.6125 48.3708C68.6125 45.1833 67.475 42.5833 65.6083 40.5417C65.9083 39.8042 66.9083 36.8375 65.3208 32.8208C65.3208 32.8208 62.875 32.0375 57.3083 35.8083C54.9708 35.1667 52.4792 34.8458 50 34.8333C47.5208 34.8458 45.0292 35.1667 42.6958 35.8125C37.125 32.0417 34.675 32.825 34.675 32.825C33.0958 36.8417 34.0917 39.8083 34.3958 40.5417C32.5292 42.5833 31.3875 45.1833 31.3875 48.3708C31.3875 59.5458 38.1958 62.0458 44.675 62.7833C43.8417 63.5125 43.0875 64.7958 42.825 66.6833C41.1583 67.4292 36.9375 68.7167 34.3375 64.2583C34.3375 64.2583 32.7958 61.4583 29.8667 61.25C29.8667 61.25 27.0208 61.2125 29.6667 63.025C29.6667 63.025 31.5833 63.9208 32.9042 67.2917C32.9042 67.2917 34.5917 72.5 42.7083 70.7333V76.1625C42.7083 76.9333 42.2375 77.8375 40.7833 77.5667C29.1917 73.7125 20.8333 62.7792 20.8333 49.8958C20.8333 33.7833 33.8958 20.7292 50 20.7292C66.1042 20.7292 79.1667 33.7833 79.1667 49.8958C79.1667 62.775 70.8208 73.7083 59.2417 77.5667Z" fill="black"/>
</svg>
