<svg width="100" height="100" viewBox="0 0 100 100" fill="none" xmlns="http://www.w3.org/2000/svg">
<rect width="100" height="100" rx="50" fill="black"/>
<path d="M53.5875 50.6178C53.5875 59.4001 46.5165 66.5199 37.7937 66.5199C29.071 66.5199 22.0005 59.4022 22.0005 50.6178C22.0005 41.8333 29.0715 34.7162 37.7937 34.7162C46.516 34.7162 53.5875 41.8355 53.5875 50.6178ZM70.9135 50.6178C70.9135 58.8852 67.3777 65.5867 63.0166 65.5867C58.6555 65.5867 55.1197 58.8831 55.1197 50.6178C55.1197 42.3524 58.6555 35.6488 63.0166 35.6488C67.3777 35.6488 70.9135 42.3524 70.9135 50.6178ZM78 50.6178C78 58.025 76.7564 64.0293 75.2226 64.0293C73.6888 64.0293 72.4451 58.0229 72.4451 50.6178C72.4451 43.2127 73.6888 37.2062 75.2231 37.2062C76.7574 37.2062 78 43.211 78 50.6178Z" fill="white"/>
</svg>
