<svg width="100" height="100" viewBox="0 0 100 100" fill="none" xmlns="http://www.w3.org/2000/svg">
<rect width="100" height="100" rx="50" fill="black"/>
<path d="M80 49.2846C80 45.6614 77.0399 42.7161 73.4018 42.7161C71.6262 42.7161 70.017 43.4264 68.8324 44.5687C64.3376 41.611 58.2559 39.7287 51.5211 39.4878L55.2039 27.8931L65.177 30.2299L65.1621 30.3739C65.1621 33.3366 67.5833 35.7454 70.5608 35.7454C73.5359 35.7454 75.9546 33.3366 75.9546 30.3739C75.9546 27.4113 73.5334 25 70.5608 25C68.2762 25 66.3292 26.4254 65.542 28.4245L54.7916 25.9039C54.3223 25.7897 53.8455 26.0604 53.699 26.5223L49.5915 39.453C42.5438 39.5375 36.1592 41.4347 31.4632 44.4818C30.2861 43.3941 28.724 42.7136 26.9956 42.7136C23.3576 42.7136 20.3999 45.6614 20.3999 49.2846C20.3999 51.6934 21.7235 53.7819 23.6705 54.9242C23.5413 55.6245 23.4569 56.3323 23.4569 57.0524C23.4569 66.7648 35.3968 74.6667 50.0758 74.6667C64.7548 74.6667 76.6972 66.7648 76.6972 57.0524C76.6972 56.372 76.6251 55.7015 76.5109 55.0409C78.577 53.9309 80 51.7828 80 49.2846ZM37.227 53.7943C37.227 51.6388 38.9902 49.883 41.1556 49.883C43.3211 49.883 45.0818 51.6388 45.0818 53.7943C45.0818 55.9498 43.3211 57.7031 41.1556 57.7031C38.9902 57.7031 37.227 55.9498 37.227 53.7943ZM59.7285 65.389C57.7493 67.3583 54.6426 68.3169 50.2322 68.3169L50.2 68.3094L50.1677 68.3169C45.7548 68.3169 42.6481 67.3583 40.6714 65.389C40.3113 65.0314 40.3113 64.4478 40.6714 64.0902C41.0315 63.7301 41.6175 63.7301 41.9776 64.0902C43.5918 65.6969 46.2713 66.4767 50.1677 66.4767L50.2 66.4841L50.2322 66.4767C54.1286 66.4767 56.8081 65.6944 58.4223 64.0877C58.7824 63.7276 59.3684 63.7301 59.7285 64.0877C60.0886 64.4478 60.0886 65.0289 59.7285 65.389ZM59.2592 57.7031C57.0937 57.7031 55.333 55.9498 55.333 53.7943C55.333 51.6388 57.0937 49.883 59.2592 49.883C61.4246 49.883 63.1853 51.6388 63.1853 53.7943C63.1853 55.9498 61.4246 57.7031 59.2592 57.7031Z" fill="white"/>
</svg>
