<svg width="100" height="100" viewBox="0 0 100 100" fill="none" xmlns="http://www.w3.org/2000/svg">
<rect width="100" height="100" rx="50" fill="black"/>
<path fill-rule="evenodd" clip-rule="evenodd" d="M59.002 69.5694C59.6325 70.014 60.4452 70.1251 61.1698 69.8521C61.8944 69.5772 62.427 68.961 62.5876 68.2141C64.2893 60.2503 68.4174 40.0931 69.9664 32.8489C70.0839 32.3029 69.8881 31.7354 69.4573 31.3708C69.0264 31.0061 68.4292 30.9008 67.8965 31.0978C59.6854 34.1242 34.398 43.572 24.0622 47.3803C23.4061 47.6221 22.9792 48.25 23.0008 48.9384C23.0243 49.6287 23.4904 50.2273 24.162 50.4282C28.7973 51.8088 34.8817 53.7295 34.8817 53.7295C34.8817 53.7295 37.7252 62.2803 39.2076 66.6288C39.3936 67.1748 39.8225 67.6038 40.3884 67.752C40.9524 67.8982 41.5556 67.7442 41.9766 67.3483C44.3579 65.1097 48.0395 61.6485 48.0395 61.6485C48.0395 61.6485 55.0345 66.7555 59.002 69.5694ZM37.4412 52.6492L40.7292 63.4483L41.4596 56.6097C41.4596 56.6097 54.163 45.2002 61.4048 38.6969C61.6163 38.5058 61.6456 38.186 61.4694 37.9618C61.2951 37.7375 60.974 37.6849 60.7331 37.837C52.3399 43.1742 37.4412 52.6492 37.4412 52.6492Z" fill="white"/>
</svg>
