<svg width="100" height="100" viewBox="0 0 100 100" fill="none" xmlns="http://www.w3.org/2000/svg">
<rect width="100" height="100" rx="50" fill="black"/>
<path fill-rule="evenodd" clip-rule="evenodd" d="M32.75 27H67.25C70.424 27 73 29.576 73 32.75V67.25C73 70.424 70.424 73 67.25 73H32.75C29.576 73 27 70.424 27 67.25V32.75C27 29.576 29.576 27 32.75 27ZM55.7499 32.98H64.2599C65.7779 32.98 67.0199 34.222 67.0199 35.74V50.345C67.0199 51.863 65.7779 53.105 64.2599 53.105H55.7499C54.2319 53.105 52.9899 51.863 52.9899 50.345V35.74C52.9899 34.222 54.2319 32.98 55.7499 32.98ZM44.2502 32.98H35.7402C34.2222 32.98 32.9802 34.222 32.9802 35.74V61.845C32.9802 63.363 34.2222 64.605 35.7402 64.605H44.2502C45.7682 64.605 47.0102 63.363 47.0102 61.845V35.74C47.0102 34.222 45.7682 32.98 44.2502 32.98Z" fill="white"/>
</svg>
