<svg width="100" height="100" fill="none" xmlns="http://www.w3.org/2000/svg"><circle cx="50" cy="50" r="50" fill="#000"/><path d="M51.546 18.447l-1.73 2.082-1.737-2.092a22.372 22.372 0 012.862-.032v-.001a18.437 18.437 0 01.605.043z" fill="#fff"/><path fill-rule="evenodd" clip-rule="evenodd" d="M45.599 18.9c.312-.109.726-.22 1.264-.313l2.284 2.75-2.87 3.457a.245.245 0 00-.025.035l-.122.147 6.033 7.267-2.346 2.825-2.346-2.825 1.852-2.231-.67-.807-1.852 2.23H46.8l-.67.807 3.017 3.634-2.87 3.456a.245.245 0 00-.025.035l-.122.148L51.515 46a39.032 39.032 0 01-3.402.007l1.21-1.458-.67-.807-1.82 2.192a38.073 38.073 0 01-2.078-.21v-.027c-.016-.022-4.922-6.533-7.533-8.42-1.23-.889-2.869-1.74-4.26-2.391a33.12 33.12 0 00-2.146 6.532c-1.224-.892-2.149-1.943-2.82-2.887a35.052 35.052 0 012.994-7.39c.473.154 1.943.639 3.288 1.167l.854.329s.54.32 1.02.586c1.547.86 5.843 6.017 5.843 6.017l-.053-.133.052.062s-2.75-7.046-4.468-8.593c-1.296-1.166-3.081-2.432-3.88-2.983l.004-.005-.252-.173c3.262-4.31 7.482-7.352 12.2-8.517zm-.844 3.854c-2.39.891-4.647 2.399-6.66 4.457.993.945 2.102 2.138 2.869 3.364 1.052 1.684 2.684 5.88 3.791 8.88V22.754z" fill="#fff"/><path fill-rule="evenodd" clip-rule="evenodd" d="M55.05 45.662c-.728.108-1.478.195-2.261.258l-2.302-2.772 3.017-3.633-.298-.359a.564.564 0 00-.038-.052l-2.112-2.544-.67.808 1.78 2.144-2.35 2.83-2.348-2.83 6.036-7.27-.67-.807-2.347-2.825 3.017-3.634-.298-.359a.564.564 0 00-.038-.051l-2.112-2.544-.67.807 1.78 2.144-2.35 2.83-2.348-2.83 5.293-6.375c.117.02.228.04.335.061 5.173.933 9.807 4.106 13.327 8.757l-.252.173.004.005c-.8.551-2.584 1.817-3.88 2.983-1.719 1.547-4.468 8.593-4.468 8.593l.052-.062-.053.133s4.296-5.157 5.843-6.017c.48-.267 1.02-.586 1.02-.586l.854-.33a62.894 62.894 0 013.287-1.165 35.057 35.057 0 012.995 7.39c-.671.943-1.597 1.994-2.82 2.886a33.127 33.127 0 00-2.146-6.532c-1.391.652-3.03 1.502-4.26 2.39-2.616 1.891-7.533 8.421-7.533 8.421l-.015-.036zm.016-6.207V22.754c2.39.891 4.647 2.399 6.66 4.457-.993.945-2.102 2.138-2.869 3.364-1.052 1.684-2.684 5.879-3.791 8.88z" fill="#fff"/><path d="M44.026 50.667l.729 5.694v.001l-.067.012.067.024v5.82c-2.172-.3-4.544-.718-6.358-1.226-2.568-.72-3.953-3.787-4.584-6.32a50.38 50.38 0 00-1.697-.434c.055.415.14.96.261 1.563.274 1.353.727 2.948 1.443 4.08.585.925 1.097 1.576 1.653 2.049.547.466 1.157.776 1.962.986 1.82.476 3.149.537 4.329.591.27.013.533.025.793.041 1.384.09 2.615.314 4.141 1.429l2.22-2.674.67.807-2.09 2.519c.53.468 1.118 1.039 1.62 1.543.299.299.572.578.792.806.22-.228.493-.507.791-.806a34.026 34.026 0 011.822-1.718l-6.128-7.38.123-.147a.24.24 0 01.024-.035l2.87-3.457-2.979-3.588c-.727-.048-1.541-.107-2.407-.18z" fill="#fff"/><path d="M31.057 54c-.423-.088-.821-.165-1.195-.23l.041.335c.23 1.82.592 3.973 1.105 5.513 1.031 3.093 3.609 6.014 9.452 6.53 4.675.412 7.331 4.067 8.42 5.843l1.031 1.89 1.031-1.89c1.09-1.776 3.746-5.431 8.421-5.843 5.843-.516 8.42-3.437 9.452-6.53.483-1.451.833-3.446 1.063-5.194l-1.206.27c-.055.378-.13.826-.228 1.312-.28 1.383-.763 3.13-1.582 4.427-.608.961-1.185 1.712-1.855 2.282-.678.578-1.43.953-2.366 1.197-1.932.504-3.375.57-4.561.624-.262.012-.512.023-.752.039-1.293.083-2.337.279-3.706 1.308-.589.443-1.459 1.275-2.2 2.017a68.28 68.28 0 00-1.21 1.245l-.075.08-.025.027-.202.333-.202-.333-.026-.027-.075-.08a60.057 60.057 0 00-1.21-1.245c-.74-.742-1.61-1.574-2.2-2.017-1.369-1.03-2.412-1.225-3.706-1.308-.24-.016-.489-.027-.75-.039-1.187-.054-2.63-.12-4.563-.624-.934-.244-1.687-.62-2.365-1.197-.67-.57-1.247-1.32-1.855-2.282-.82-1.296-1.303-3.044-1.582-4.427a24.907 24.907 0 01-.32-2.005z" fill="#fff"/><path d="M65.832 55.329l1.769-.396c-.044.268-.096.56-.159.868-.273 1.353-.727 2.948-1.443 4.08-.584.925-1.096 1.576-1.652 2.049-.547.466-1.157.776-1.962.986-1.82.476-3.149.537-4.329.591-.27.013-.533.025-.793.041-1.318.085-2.497.292-3.924 1.275l-2.586-3.115 3.017-3.633-.298-.36a.53.53 0 00-.038-.051l-2.112-2.544-.67.808 1.78 2.144-2.35 2.829-2.348-2.83 6.036-7.27-.007-.008c.631-.047 1.316-.102 2.037-.167l-.727 5.681-.007.002v5.909c2.173-.3 4.545-.718 6.36-1.226 2.35-.658 3.708-3.282 4.406-5.663zM47.845 50.933l2.238 2.695 2.273-2.738a124.326 124.326 0 01-2.395.13.23.23 0 01-.07.004l-.012-.001-.047.002h-.05l-.034-.002-.099-.003a119.706 119.706 0 01-1.766-.085l-.038-.002zM26.943 40.287c-.197-.307-.747-1.12-.747.202v1.255c1.325 2 3.647 4.753 6.824 5.778 2.658.858 6.837 1.394 10.404 1.713a135.582 135.582 0 006.278.41l.096.004h.008l.044-.001.05-.002a109.235 109.235 0 001.647-.084 132.26 132.26 0 004.361-.327c3.467-.318 7.662-.855 10.708-1.72 3.31-.94 5.435-3.313 6.666-5.227v-1.344c0-1.433-.675-.54-.873-.21-1.084 1.8-3.256 4.486-6.946 5.478-5.757 1.546-15.724 1.89-15.724 1.89s-10.655-.344-15.724-1.89c-3.531-1.078-5.937-4.156-7.072-5.925z" fill="#fff"/><path d="M66.992 48.837a11.835 11.835 0 003.025-1.341v4.379c-1.802.428-4.36 1.124-7.991 2.242a552.436 552.436 0 00-4.745 1.48c-.697.29-.929.275-1.012-.11l.687-4.97c3.293-.33 7.135-.855 10.036-1.68zM71.076 46.758l-.092 4.604c.862-.917 2.398-2.814 2.336-3.556a10.84 10.84 0 01-.038-.907v-2.287a14.116 14.116 0 01-2.206 2.146zM32.597 48.83c2.708.874 6.794 1.41 10.268 1.735l.687 4.922c-.049.35-.328.318-.986.102l-3.052-1.128c-4.05-1.498-7.143-2.294-9.402-2.71V47.66c.762.477 1.591.882 2.485 1.17zM26.196 44.076c.77.961 1.725 1.97 2.856 2.843l.067 4.567c-1.108-.177-3.096-2.14-2.987-3.247.04-.402.064-.847.064-1.34v-2.823zM41.67 45.204c-2.574-.534-4.995-1.273-7.568-2.058l-.088-.027a9.778 9.778 0 01-1.889-.807c.962-1.69 2.5-3.638 2.5-3.638s3.727 2.139 5.768 4.657c.364.449.802 1.102 1.277 1.873zM67.612 42.282c-.65.34-1.366.626-2.15.837-.9.242-1.752.48-2.572.708-1.657.462-3.184.888-4.721 1.24.442-.71.85-1.314 1.192-1.736 2.041-2.518 5.768-4.657 5.768-4.657s1.52 1.926 2.483 3.608zM70.246 70.683L75 69.585s-2.062-7.046-2.062-8.439v-8.438l-2.002 1.479-.69 16.496zM69.157 62.236l-.01.03-.013.038c-.894 2.617-2.931 5.11-7.194 6.106v10.455l.816-.68 6.401-6.757v-9.192zM30.687 62.304a9.372 9.372 0 01-.024-.07v9.204l7.218 7.427V68.41c-4.263-.996-6.3-3.489-7.194-6.106zM27.718 53.096c.346.215.73.453 1.152.514l.7 17.069-4.75-1.094s2.063-7.218 2.063-8.433v-8.434c.249.014.527.187.835.378z" fill="#fff"/></svg>