<svg width="300" height="300" viewBox="0 0 300 300" fill="none" xmlns="http://www.w3.org/2000/svg">
<path d="M99.5989 50.0481L108.748 39.0324L149.924 88.6099L191.101 39.0324L200.25 50.0481L117.864 149.243L149.924 187.845L181.985 149.243L157.688 119.988L166.837 108.973L195.664 143.681C195.851 143.906 196.024 144.142 196.184 144.387L200.25 149.283L159.073 198.86L200.238 248.424L191.089 259.439L99.5989 149.283L101.271 147.27C101.367 147.101 101.477 146.941 101.601 146.792L140.775 99.6256L99.5989 50.0481Z" fill="black"/>
<path d="M99.6108 248.423L134.035 206.975L143.184 217.991L108.76 259.439L99.6108 248.423Z" fill="black"/>
</svg>
