<svg width="230" height="230" viewBox="0 0 230 230" fill="none" xmlns="http://www.w3.org/2000/svg">
<circle cx="115" cy="115" r="101.543" fill="white" stroke="black" stroke-width="8.04622"/>
<path d="M220.566 115C220.566 173.303 173.303 220.566 115 220.566C56.6973 220.566 9.43359 173.303 9.43359 115C9.43359 56.6973 56.6973 9.43359 115 9.43359C173.303 9.43359 220.566 56.6973 220.566 115Z" fill="black"/>
<path d="M208.047 115C208.047 166.388 166.388 208.047 115 208.047C63.6115 208.047 21.953 166.388 21.953 115C21.953 63.6115 63.6115 21.953 115 21.953C166.388 21.953 208.047 63.6115 208.047 115ZM115 225.04C175.773 225.04 225.04 175.773 225.04 115C225.04 54.2268 175.773 4.96044 115 4.96044C54.2268 4.96044 4.96044 54.2268 4.96044 115C4.96044 175.773 54.2268 225.04 115 225.04Z" fill="white" stroke="black" stroke-width="8.94631"/>
<circle cx="115" cy="115" r="88.8303" fill="white"/>
<path d="M86.9991 59.9612L92.0896 53.8487L115 81.359L137.91 53.8487L143.001 59.9612L97.1616 115.004L115 136.424L132.838 115.004L119.319 98.7707L124.41 92.6582L140.449 111.918C140.553 112.043 140.65 112.174 140.738 112.309L143.001 115.026L120.09 142.536L142.994 170.039L137.904 176.151L86.9991 115.026L87.9295 113.909C87.983 113.816 88.0443 113.727 88.1134 113.644L109.91 87.4715L86.9991 59.9612Z" fill="black"/>
<path d="M87.0058 170.039L106.159 147.039L111.25 153.152L92.0962 176.151L87.0058 170.039Z" fill="black"/>
<rect x="108.885" y="9.43359" width="12.2303" height="12.2303" fill="black"/>
<rect x="9.43359" y="121.115" width="12.2303" height="12.2303" transform="rotate(-90 9.43359 121.115)" fill="black"/>
<rect x="208.336" y="121.115" width="12.2303" height="12.2303" transform="rotate(-90 208.336 121.115)" fill="black"/>
<rect x="36.088" y="44.6188" width="12.0647" height="12.3664" transform="rotate(-45 36.088 44.6188)" fill="black"/>
<rect x="176.638" y="185.168" width="12.0647" height="12.3664" transform="rotate(-45 176.638 185.168)" fill="black"/>
<rect x="44.6194" y="193.912" width="12.0647" height="12.3664" transform="rotate(-135 44.6194 193.912)" fill="black"/>
<rect x="185.168" y="53.3634" width="12.0647" height="12.3664" transform="rotate(-135 185.168 53.3634)" fill="black"/>
</svg>
