<svg width="120" height="120" viewBox="0 0 120 120" fill="none" xmlns="http://www.w3.org/2000/svg">
<path d="M113.916 59.8927C113.988 89.6566 89.9183 113.844 60.1544 113.916C30.3905 113.988 6.20349 89.9188 6.13109 60.1549C6.05869 30.3911 30.1284 6.204 59.8922 6.13161C89.6561 6.05921 113.843 30.1289 113.916 59.8927Z" fill="black"/>
<path fill-rule="evenodd" clip-rule="evenodd" d="M60.1504 112.28C89.0108 112.21 112.35 88.7571 112.28 59.8967C112.209 31.0363 88.7566 7.69726 59.8962 7.76746C31.0358 7.83766 7.69674 31.2905 7.76694 60.1509C7.83714 89.0113 31.29 112.35 60.1504 112.28ZM60.1544 113.916C89.9183 113.844 113.988 89.6566 113.916 59.8927C113.843 30.1289 89.6561 6.05921 59.8922 6.13161C30.1284 6.204 6.05869 30.3911 6.13109 60.1549C6.20349 89.9188 30.3905 113.988 60.1544 113.916Z" fill="white"/>
<path fill-rule="evenodd" clip-rule="evenodd" d="M60.5026 11.4501L58.8051 11.4346L58.7712 15.1477L59.588 15.1552L59.5989 13.967L60.2408 13.9728L61.0255 15.1683L61.9804 15.177L61.0854 13.8426C61.3232 13.7564 61.5154 13.6202 61.6621 13.4341C61.8124 13.2445 61.8889 12.9994 61.8916 12.6988L61.8917 12.6882C61.895 12.3346 61.7914 12.0507 61.5812 11.8366C61.3324 11.5832 60.9729 11.4544 60.5026 11.4501ZM60.8958 13.1141C60.7888 13.2086 60.6346 13.255 60.433 13.2531L59.6055 13.2456L59.6153 12.1794L60.4268 12.1868C60.6284 12.1886 60.7854 12.2343 60.8977 12.3237C61.0101 12.4132 61.0655 12.5463 61.0638 12.7231L61.0637 12.7337C61.0623 12.8928 61.0063 13.0196 60.8958 13.1141Z" fill="white"/>
<path d="M52.5863 12.0029L55.3651 11.6516L55.4562 12.3726L53.4827 12.6221L53.5772 13.3694L55.3139 13.1498L55.405 13.8709L53.6683 14.0904L53.7661 14.864L55.766 14.6112L55.8571 15.3322L53.052 15.6868L52.5863 12.0029Z" fill="white"/>
<path d="M47.6094 16.8102C47.8971 16.8326 48.1777 16.8075 48.4511 16.7349C48.646 16.6832 48.8173 16.6121 48.9653 16.5216C49.1123 16.4277 49.2317 16.3192 49.3234 16.196C49.4142 16.0695 49.474 15.9292 49.5026 15.7753C49.5303 15.6179 49.5206 15.4503 49.4734 15.2726L49.4707 15.2623C49.429 15.1051 49.3675 14.9769 49.2863 14.8777C49.2085 14.7776 49.1091 14.6997 48.9882 14.644C48.8699 14.5839 48.7312 14.5439 48.5722 14.5239C48.4157 14.4996 48.2405 14.4876 48.0467 14.4878C47.882 14.4876 47.7443 14.4857 47.6336 14.4822C47.5263 14.4778 47.439 14.4661 47.3719 14.4474C47.3047 14.4286 47.2537 14.4019 47.2189 14.3673C47.1866 14.3283 47.1627 14.2797 47.1473 14.2216L47.1446 14.2114C47.121 14.1225 47.1391 14.039 47.1988 13.961C47.2611 13.8786 47.3692 13.8169 47.523 13.7761C47.6768 13.7353 47.8392 13.7269 48.0103 13.751C48.1804 13.7717 48.3603 13.8154 48.55 13.8822L48.8023 13.1785C48.5787 13.0806 48.3454 13.0218 48.1023 13.0021C47.8627 12.9816 47.6113 13.0062 47.3481 13.0761C47.1635 13.1251 47.0012 13.1957 46.861 13.2878C46.7207 13.3799 46.607 13.4887 46.5196 13.6144C46.4356 13.7391 46.3805 13.8763 46.3544 14.026C46.3274 14.1722 46.3356 14.3273 46.3792 14.4914L46.3819 14.5016C46.4291 14.6794 46.4959 14.8208 46.5823 14.9259C46.6722 15.0301 46.7793 15.1096 46.9036 15.1644C47.027 15.2158 47.1695 15.2494 47.331 15.265C47.4925 15.2807 47.6697 15.2867 47.8626 15.2831C48.023 15.2807 48.1539 15.2844 48.2552 15.2941C48.36 15.3029 48.4426 15.3175 48.5029 15.3381C48.5667 15.3578 48.6126 15.3859 48.6405 15.4223C48.671 15.4545 48.6931 15.4962 48.7067 15.5475L48.7094 15.5577C48.7375 15.6637 48.7136 15.7597 48.6377 15.8457C48.5642 15.9274 48.4455 15.99 48.2814 16.0336C48.0763 16.088 47.8762 16.0991 47.681 16.0667C47.4892 16.0335 47.2936 15.972 47.0942 15.8822L46.776 16.5649C47.043 16.7026 47.3208 16.7844 47.6094 16.8102Z" fill="white"/>
<path d="M40.286 15.6249L42.875 14.5565L43.1523 15.2283L41.3134 15.9871L41.6008 16.6834L43.2189 16.0157L43.4961 16.6875L41.878 17.3552L42.1754 18.076L44.0388 17.3071L44.316 17.9789L41.7024 19.0574L40.286 15.6249Z" fill="white"/>
<path fill-rule="evenodd" clip-rule="evenodd" d="M35.657 18.0183L34.1912 18.8744L36.0641 22.0808L36.7695 21.6688L36.1702 20.6427L36.7244 20.319L38.0108 20.9437L38.8353 20.4621L37.3831 19.7745C37.5432 19.5786 37.6385 19.3632 37.6692 19.1283C37.7011 18.8884 37.6413 18.6388 37.4896 18.3792L37.4843 18.37C37.3059 18.0647 37.0716 17.8739 36.7814 17.7977C36.4379 17.7075 36.0631 17.781 35.657 18.0183ZM36.8471 19.246C36.8037 19.3819 36.6949 19.5007 36.5209 19.6024L35.8063 20.0198L35.2685 19.0991L35.9693 18.6897C36.1434 18.5881 36.3016 18.5469 36.4439 18.5661C36.5862 18.5854 36.7019 18.6714 36.7911 18.8241L36.7965 18.8332C36.8767 18.9706 36.8936 19.1082 36.8471 19.246Z" fill="white"/>
<path fill-rule="evenodd" clip-rule="evenodd" d="M101.489 59.9224C101.545 82.8227 83.0255 101.432 60.1252 101.488C37.2249 101.544 18.6153 83.0244 18.5596 60.1241C18.5039 37.2238 37.0231 18.6142 59.9235 18.5585C82.8238 18.5028 101.433 37.0221 101.489 59.9224ZM100.782 59.9241C100.836 82.4338 82.6331 100.726 60.1235 100.781C37.6138 100.835 19.3217 82.6321 19.2669 60.1224C19.2122 37.6127 37.4155 19.3206 59.9252 19.2658C82.4349 19.2111 100.727 37.4144 100.782 59.9241Z" fill="white"/>
<path d="M106.785 63.7142L104.445 64.9874L104.509 64.0347L106.056 63.2506L104.629 62.251L104.691 61.3248L106.824 62.8981L108.301 62.9972L108.246 63.8123L106.785 63.7142Z" fill="white"/>
<path fill-rule="evenodd" clip-rule="evenodd" d="M15.2471 61.8957L15.3622 63.3393C15.3853 63.6284 15.3588 63.8966 15.2827 64.1439C15.2104 64.3945 15.0983 64.6127 14.9464 64.7987C14.7948 64.9881 14.61 65.1395 14.3919 65.2526C14.1774 65.3655 13.9398 65.4324 13.6789 65.4532L13.6683 65.454C13.4075 65.4748 13.1604 65.4466 12.9272 65.3694C12.694 65.2922 12.4875 65.1721 12.3078 65.0091C12.1283 64.8496 11.9813 64.652 11.8667 64.4163C11.7524 64.1842 11.6837 63.9236 11.6607 63.6345L11.5456 62.1909L15.2471 61.8957ZM12.3957 63.5759C12.4089 63.7416 12.4474 63.8911 12.5113 64.0243C12.5751 64.1576 12.6602 64.2679 12.7665 64.3552C12.8731 64.446 12.9955 64.5126 13.1336 64.5547C13.2721 64.6005 13.4242 64.6167 13.5899 64.6035L13.6004 64.6027C13.7626 64.5897 13.9102 64.5496 14.0431 64.4822C14.1764 64.4184 14.2885 64.3332 14.3793 64.2266C14.4704 64.1235 14.5369 64.0012 14.5789 63.8595C14.6243 63.7175 14.6404 63.5636 14.6272 63.3979L14.577 62.7687L12.3455 62.9466L12.3957 63.5759Z" fill="white"/>
<path d="M16.2486 68.6386L16.4128 69.4389L12.7753 70.1852L12.6111 69.3849L16.2486 68.6386Z" fill="white"/>
<path d="M13.9828 74.4817C13.9678 74.7401 14.0059 75.0068 14.0972 75.2821C14.204 75.6044 14.3523 75.8719 14.542 76.0847C14.7362 76.2998 14.9406 76.4723 15.1551 76.6024L16.6858 76.0951L16.1785 74.5644L15.5088 74.7863L15.7675 75.5668L15.2639 75.7337C15.0573 75.5824 14.9061 75.3623 14.8105 75.0737C14.7582 74.9159 14.7372 74.7626 14.7475 74.6139C14.7623 74.4674 14.8039 74.3288 14.8724 74.1981C14.9419 74.0707 15.0349 73.958 15.1514 73.8597C15.2724 73.7638 15.4134 73.6891 15.5745 73.6357L15.5846 73.6324C15.7357 73.5823 15.885 73.5607 16.0326 73.5677C16.1847 73.5769 16.3244 73.6107 16.4518 73.6691C16.5837 73.7297 16.6981 73.811 16.7953 73.9129C16.8969 74.0171 16.971 74.1397 17.0177 74.2807C17.0511 74.3814 17.0733 74.4765 17.0843 74.566C17.0954 74.6554 17.0975 74.7404 17.0906 74.8209C17.0849 74.9048 17.0713 74.9875 17.0499 75.0691C17.0285 75.1507 17.0004 75.2346 16.9656 75.3206L17.7166 75.6138C17.7638 75.4976 17.8015 75.3808 17.8296 75.2634C17.8578 75.146 17.8736 75.0253 17.8772 74.9011C17.8808 74.777 17.8709 74.6462 17.8477 74.5086C17.8289 74.3732 17.7934 74.2266 17.7411 74.0689C17.6521 73.8003 17.5216 73.5697 17.3498 73.3771C17.1812 73.1833 16.9858 73.032 16.7634 72.9231C16.5444 72.8132 16.3086 72.7479 16.0559 72.7273C15.8076 72.709 15.5576 72.7416 15.3059 72.825L15.2958 72.8283C15.034 72.9151 14.8073 73.0405 14.6158 73.2046C14.4242 73.3687 14.2746 73.558 14.1669 73.7725C14.0603 73.9904 13.9989 74.2268 13.9828 74.4817Z" fill="white"/>
<path d="M19.5378 78.7815L19.8884 79.5194L16.5345 81.113L16.1839 80.3751L19.5378 78.7815Z" fill="white"/>
<path d="M20.5625 82.4701L21.1573 83.4308L18.6407 84.9891L19.0707 85.6836L21.5874 84.1254L22.1822 85.086L22.8226 84.6895L21.2029 82.0736L20.5625 82.4701Z" fill="white"/>
<path fill-rule="evenodd" clip-rule="evenodd" d="M25.3969 88.1129L25.8782 88.6923L24.0189 92.3063L23.4731 91.6494L23.8967 90.856L22.8932 89.6484L22.0357 89.9195L21.5034 89.2789L25.3969 88.1129ZM24.2651 90.1706L24.876 89.0216L23.6345 89.4117L24.2651 90.1706Z" fill="white"/>
<path d="M29.7558 92.7991L29.1522 92.2487L26.6502 94.9924L28.6217 96.7903L29.1221 96.2416L27.7542 94.9941L29.7558 92.7991Z" fill="white"/>
<path fill-rule="evenodd" clip-rule="evenodd" d="M36.346 97.8797L37.8159 98.7287C38.2232 98.964 38.4727 99.2531 38.5646 99.5961C38.6422 99.886 38.5925 100.184 38.4157 100.49L38.4104 100.499C38.26 100.76 38.0728 100.935 37.8486 101.027C37.6293 101.116 37.395 101.14 37.1456 101.098L37.2678 102.7L36.441 102.223L36.3463 100.796L35.7904 100.475L35.1961 101.504L34.4887 101.095L36.346 97.8797ZM36.8679 100.264C37.0424 100.365 37.1995 100.4 37.3391 100.371C37.4818 100.343 37.593 100.26 37.6726 100.122L37.6779 100.113C37.7663 99.96 37.7836 99.8169 37.7299 99.6837C37.6761 99.5505 37.5619 99.4336 37.3874 99.3327L36.6846 98.9268L36.1513 99.8501L36.8679 100.264Z" fill="white"/>
<path d="M44.5643 101.918L41.97 100.862L40.5703 104.301L43.1891 105.367L43.4631 104.694L41.596 103.934L41.8899 103.212L43.5113 103.872L43.7853 103.199L42.1639 102.539L42.4478 101.841L44.2903 102.591L44.5643 101.918Z" fill="white"/>
<path d="M47.7388 106.838C47.465 106.767 47.2084 106.651 46.9689 106.49C46.7303 106.325 46.5286 106.117 46.3638 105.866L46.9766 105.428C47.1061 105.604 47.2462 105.754 47.3968 105.877C47.5509 106.002 47.7306 106.09 47.9359 106.144C48.1002 106.187 48.2344 106.19 48.3385 106.155C48.447 106.118 48.515 106.046 48.5426 105.94L48.5453 105.93C48.5586 105.878 48.56 105.831 48.5492 105.788C48.5428 105.743 48.5167 105.696 48.4708 105.647C48.4284 105.6 48.3637 105.546 48.2768 105.487C48.1933 105.429 48.0811 105.361 47.9404 105.284C47.7705 105.193 47.6192 105.1 47.4863 105.007C47.3534 104.914 47.2458 104.815 47.1636 104.709C47.0823 104.601 47.0282 104.479 47.0012 104.344C46.9776 104.21 46.989 104.054 47.0353 103.876L47.0379 103.866C47.0807 103.701 47.1498 103.562 47.2453 103.448C47.3416 103.331 47.457 103.238 47.5915 103.171C47.7293 103.104 47.882 103.066 48.0493 103.054C48.2167 103.043 48.3928 103.062 48.5776 103.11C48.8411 103.178 49.0722 103.28 49.2707 103.416C49.4727 103.553 49.6469 103.719 49.7934 103.914L49.2278 104.403C49.0954 104.251 48.9603 104.125 48.8223 104.023C48.6852 103.918 48.5396 103.845 48.3856 103.805C48.2316 103.765 48.1072 103.766 48.0125 103.807C47.9221 103.845 47.8653 103.909 47.8421 103.998L47.8394 104.008C47.8243 104.067 47.8212 104.121 47.8301 104.17C47.8434 104.218 47.8747 104.266 47.924 104.315C47.9732 104.365 48.0435 104.418 48.1347 104.474C48.2294 104.532 48.3484 104.601 48.4917 104.682C48.6606 104.778 48.8072 104.874 48.9315 104.972C49.0601 105.068 49.1612 105.171 49.2347 105.281C49.3126 105.389 49.3608 105.506 49.3793 105.631C49.4013 105.758 49.3918 105.9 49.3508 106.057L49.3481 106.067C49.3018 106.245 49.2279 106.396 49.1263 106.519C49.0257 106.639 48.9047 106.732 48.7634 106.798C48.623 106.86 48.4656 106.896 48.2914 106.905C48.1181 106.911 47.9339 106.889 47.7388 106.838Z" fill="white"/>
<path d="M56.0564 104.5L53.276 104.162L52.8282 107.848L55.6349 108.189L55.7226 107.468L53.7215 107.225L53.8155 106.451L55.5533 106.662L55.6409 105.94L53.9032 105.729L53.994 104.981L55.9688 105.221L56.0564 104.5Z" fill="white"/>
<path fill-rule="evenodd" clip-rule="evenodd" d="M58.9664 104.672L60.6637 104.648C61.134 104.641 61.4965 104.762 61.7511 105.009C61.9662 105.218 62.0762 105.5 62.0812 105.853L62.0813 105.864C62.0856 106.165 62.0147 106.411 61.8689 106.604C61.7265 106.794 61.5375 106.934 61.3019 107.026L62.2274 108.339L61.2727 108.353L60.4604 107.176L59.8186 107.185L59.8353 108.373L59.0184 108.384L58.9664 104.672ZM60.636 106.452C60.8375 106.449 60.9907 106.399 61.0954 106.302C61.2037 106.205 61.2567 106.077 61.2545 105.918L61.2543 105.907C61.2519 105.731 61.1934 105.599 61.079 105.512C60.9646 105.425 60.8067 105.383 60.6051 105.386L59.7936 105.397L59.8085 106.464L60.636 106.452Z" fill="white"/>
<path d="M66.1178 104.252L65.227 104.393L67.2926 107.853L68.0053 107.741L68.9054 103.813L68.0356 103.95L67.4842 106.684L66.1178 104.252Z" fill="white"/>
<path d="M71.5767 103.173L74.2577 102.363L74.468 103.058L72.5639 103.634L72.7819 104.355L74.4575 103.848L74.6678 104.544L72.9922 105.051L73.2178 105.797L75.1474 105.214L75.3577 105.909L72.6513 106.727L71.5767 103.173Z" fill="white"/>
<path d="M83.4395 102.243C83.6913 102.214 83.9356 102.132 84.1722 101.997C84.3289 101.908 84.4624 101.813 84.5727 101.714C84.6847 101.618 84.7789 101.515 84.8554 101.407C84.9332 101.293 84.9966 101.176 85.0455 101.054C85.0943 100.933 85.1349 100.804 85.1671 100.667L84.4555 100.468C84.396 100.657 84.321 100.822 84.2304 100.963C84.1429 101.102 84.0069 101.224 83.8225 101.329C83.6842 101.408 83.5418 101.455 83.3953 101.469C83.2501 101.478 83.1098 101.46 82.9743 101.415C82.8419 101.369 82.7177 101.297 82.6016 101.2C82.4855 101.104 82.3881 100.986 82.3093 100.848L82.3041 100.839C82.2253 100.7 82.1749 100.558 82.1527 100.412C82.1288 100.263 82.1321 100.119 82.1626 99.9792C82.1931 99.8398 82.2503 99.7115 82.3343 99.5946C82.4213 99.4758 82.5324 99.378 82.6677 99.301C82.8306 99.2082 82.9949 99.1574 83.1607 99.1484C83.3296 99.1377 83.5094 99.1533 83.7002 99.1953L83.8553 98.4172C83.7396 98.3854 83.6212 98.3633 83.5002 98.3508C83.3791 98.3384 83.2556 98.3395 83.1297 98.3542C83.0038 98.3689 82.8708 98.3999 82.7308 98.447C82.5939 98.4924 82.4502 98.558 82.2996 98.6437C82.0506 98.7855 81.8486 98.9595 81.6934 99.1659C81.5365 99.3692 81.4281 99.5896 81.368 99.8273C81.3063 100.062 81.2916 100.304 81.3241 100.554C81.3549 100.801 81.4359 101.04 81.5671 101.271L81.5724 101.28C81.7036 101.51 81.8685 101.703 82.0669 101.859C82.2654 102.014 82.4813 102.126 82.7145 102.192C82.946 102.256 83.1877 102.273 83.4395 102.243Z" fill="white"/>
<path d="M89.7087 98.2719C89.315 98.5778 88.9203 98.7097 88.5249 98.6676C88.1295 98.6256 87.7636 98.3881 87.4273 97.9552L86.1255 96.2796L86.7706 95.7784L88.0594 97.4373C88.246 97.6774 88.4429 97.8156 88.65 97.8517C88.855 97.8849 89.0567 97.8246 89.255 97.6705C89.4532 97.5165 89.5627 97.3374 89.5832 97.1333C89.6038 96.9293 89.523 96.7099 89.3407 96.4753L88.0356 94.7956L88.6807 94.2944L89.9663 95.949C90.1399 96.1724 90.2599 96.3904 90.3265 96.6029C90.3959 96.8132 90.4181 97.0176 90.3932 97.2161C90.3661 97.4118 90.2947 97.5994 90.1789 97.7789C90.0609 97.9557 89.9042 98.12 89.7087 98.2719Z" fill="white"/>
<path fill-rule="evenodd" clip-rule="evenodd" d="M92.1978 90.975L91.018 92.1955L93.6879 94.7762L94.2557 94.1889L93.4013 93.363L93.8474 92.9015L95.2548 93.1553L95.9184 92.4687L94.3344 92.1992C94.4356 91.9674 94.4691 91.7343 94.4351 91.4997C94.401 91.2602 94.2759 91.036 94.0598 90.8271L94.0522 90.8197C93.7979 90.5739 93.5208 90.4536 93.2207 90.4587C92.8657 90.4647 92.5247 90.6368 92.1978 90.975ZM93.6755 91.8353C93.6704 91.9779 93.5978 92.1217 93.4577 92.2666L92.8826 92.8616L92.116 92.1206L92.68 91.537C92.8201 91.3921 92.9613 91.3096 93.1035 91.2897C93.2457 91.2698 93.3804 91.3213 93.5076 91.4442L93.5152 91.4516C93.6296 91.5622 93.683 91.6901 93.6755 91.8353Z" fill="white"/>
<path fill-rule="evenodd" clip-rule="evenodd" d="M95.1738 87.6019L96.174 86.2304C96.4512 85.8504 96.7652 85.6329 97.116 85.578C97.4124 85.5316 97.7035 85.6126 97.9893 85.8209L97.9978 85.8272C98.2407 86.0043 98.3955 86.2092 98.4623 86.4417C98.5283 86.6693 98.5272 86.9048 98.459 87.1484L100.065 87.1969L99.5024 87.9684L98.0735 87.9111L97.6953 88.4297L98.6553 89.1299L98.174 89.7899L95.1738 87.6019ZM97.6 87.336C97.7188 87.1731 97.7708 87.0207 97.7562 86.8787C97.7437 86.7339 97.6731 86.6146 97.5445 86.5208L97.5359 86.5146C97.3931 86.4104 97.2526 86.3779 97.1145 86.4173C96.9764 86.4566 96.8479 86.5577 96.7291 86.7206L96.2509 87.3764L97.1124 88.0046L97.6 87.336Z" fill="white"/>
<path d="M100.036 79.9101L98.7073 82.3757L101.976 84.1373L103.317 81.6483L102.678 81.3035L101.721 83.078L101.035 82.7081L101.865 81.1671L101.226 80.8223L100.395 82.3634L99.7321 82.006L100.676 80.2549L100.036 79.9101Z" fill="white"/>
<path d="M101.334 77.0885L101.594 76.3816L104.341 75.5388L102.196 74.7488L102.474 73.9922L105.959 75.2751L105.719 75.9273L102.882 76.7992L105.097 77.6148L104.819 78.3714L101.334 77.0885Z" fill="white"/>
<path d="M107.201 70.3343C107.345 70.1259 107.445 69.8884 107.501 69.6218C107.537 69.4453 107.555 69.2828 107.553 69.1343C107.555 68.9866 107.541 68.8481 107.51 68.7189C107.476 68.5855 107.43 68.4603 107.371 68.3433C107.312 68.2263 107.243 68.1106 107.162 67.9963L106.542 68.3982C106.644 68.5676 106.718 68.7329 106.764 68.8941C106.81 69.0519 106.812 69.2347 106.769 69.4424C106.736 69.5982 106.677 69.7358 106.591 69.8551C106.502 69.9703 106.396 70.0638 106.272 70.1356C106.15 70.204 106.014 70.2498 105.864 70.2729C105.715 70.2961 105.563 70.2914 105.407 70.259L105.396 70.2568C105.241 70.2244 105.101 70.1682 104.976 70.0882C104.849 70.0074 104.743 69.9095 104.658 69.7944C104.574 69.6793 104.515 69.5516 104.483 69.4112C104.452 69.2674 104.452 69.1193 104.484 68.967C104.522 68.7835 104.592 68.6266 104.695 68.4963C104.799 68.3626 104.93 68.238 105.087 68.1227L104.606 67.4917C104.506 67.5575 104.411 67.6316 104.322 67.7142C104.232 67.7967 104.151 67.8901 104.079 67.9942C104.007 68.0984 103.942 68.2186 103.885 68.3548C103.828 68.4875 103.782 68.6387 103.747 68.8084C103.689 69.0888 103.686 69.3555 103.738 69.6083C103.786 69.8605 103.88 70.0876 104.019 70.2899C104.154 70.4913 104.326 70.6626 104.535 70.8036C104.74 70.9439 104.973 71.0411 105.233 71.0951L105.243 71.0973C105.503 71.1513 105.757 71.1554 106.005 71.1094C106.253 71.0635 106.479 70.9751 106.683 70.8442C106.884 70.7126 107.056 70.5426 107.201 70.3343Z" fill="white"/>
<path fill-rule="evenodd" clip-rule="evenodd" d="M11.5 58.073L11.6081 56.6289C11.6297 56.3397 11.6972 56.0788 11.8103 55.8461C11.9202 55.6096 12.0645 55.4112 12.2432 55.2508C12.4222 55.0869 12.628 54.9657 12.8609 54.8874C13.0902 54.8088 13.3353 54.7793 13.5963 54.7988L13.6069 54.7996C13.8678 54.8192 14.1076 54.885 14.3262 54.9971C14.5447 55.1092 14.7303 55.2596 14.8828 55.4484C15.0357 55.6336 15.1506 55.8514 15.2276 56.1019C15.3048 56.3488 15.3327 56.6169 15.311 56.906L15.2029 58.3502L11.5 58.073ZM14.5757 56.851C14.5881 56.6853 14.573 56.5316 14.5304 56.3901C14.4878 56.2486 14.4207 56.1266 14.3291 56.024C14.2377 55.9178 14.127 55.8333 13.997 55.7704C13.8672 55.7039 13.7194 55.6645 13.5537 55.6521L13.5431 55.6513C13.3809 55.6392 13.2289 55.6561 13.0871 55.7023C12.9456 55.7449 12.8218 55.8119 12.7157 55.9032C12.6098 55.991 12.5253 56.1017 12.4621 56.2353C12.3954 56.3686 12.3558 56.5182 12.3434 56.6839L12.2963 57.3134L14.5286 57.4805L14.5757 56.851Z" fill="white"/>
<path d="M12.5168 50.0452L12.3565 50.8463L15.9976 51.5749L16.1579 50.7739L12.5168 50.0452Z" fill="white"/>
<path d="M17.4734 46.1057C17.3835 46.3814 17.2559 46.6188 17.0906 46.8178C16.9264 47.0135 16.7367 47.1674 16.5216 47.2795C16.3076 47.3883 16.0748 47.4519 15.8233 47.4703C15.5718 47.4888 15.3149 47.4552 15.0527 47.3697L15.0426 47.3665C14.7904 47.2842 14.5699 47.1621 14.3809 47.0001C14.1897 46.8336 14.0386 46.6411 13.9275 46.4227C13.8131 46.2031 13.7456 45.9653 13.7249 45.7094C13.7008 45.4523 13.7326 45.1893 13.8203 44.9203C13.8718 44.7623 13.9302 44.6232 13.9954 44.5031C14.0583 44.3786 14.128 44.2674 14.2046 44.1696C14.2811 44.0718 14.3655 43.984 14.4578 43.9062C14.5501 43.8285 14.6497 43.7568 14.7567 43.6912L15.1873 44.3728C15.1082 44.4214 15.0358 44.4722 14.9702 44.5252C14.9045 44.5782 14.8445 44.6368 14.7902 44.7009C14.7369 44.7616 14.6881 44.8313 14.6439 44.9098C14.5997 44.9884 14.5612 45.0781 14.5283 45.179C14.4822 45.3202 14.4692 45.4629 14.4892 45.607C14.5069 45.7467 14.5508 45.8801 14.621 46.0071C14.6889 46.1297 14.7813 46.2398 14.8983 46.3374C15.0129 46.4306 15.1459 46.5019 15.2972 46.5512L15.3073 46.5545C15.4687 46.6071 15.6266 46.6306 15.7809 46.6252C15.9329 46.6152 16.0747 46.5796 16.2062 46.5183C16.3389 46.4537 16.4546 46.3668 16.5534 46.2577C16.65 46.1441 16.724 46.0083 16.7755 45.8503C16.8698 45.5611 16.8787 45.2944 16.8021 45.0499L16.2978 44.8855L16.0429 45.6672L15.3722 45.4486L15.872 43.9154L17.4052 44.4152C17.5007 44.6472 17.5628 44.9074 17.5915 45.1957C17.618 45.4796 17.5786 45.7829 17.4734 46.1057Z" fill="white"/>
<path d="M16.2421 39.0465L15.8951 39.786L19.2568 41.3633L19.6038 40.6237L16.2421 39.0465Z" fill="white"/>
<path d="M18.9819 35.5305L18.3918 36.4941L17.7494 36.1007L19.3564 33.4769L19.9987 33.8704L19.4086 34.8339L21.9328 36.3799L21.5061 37.0765L18.9819 35.5305Z" fill="white"/>
<path fill-rule="evenodd" clip-rule="evenodd" d="M22.669 28.9798L22.1904 29.5615L24.0673 33.1665L24.5965 32.5233L24.169 31.732L25.1666 30.5195L26.0254 30.7864L26.568 30.1269L22.669 28.9798ZM23.1808 29.9024L24.4241 30.2864L23.7972 31.0484L23.1808 29.9024Z" fill="white"/>
<path d="M26.3424 25.0454L26.9433 24.492L28.9556 26.6773L30.3175 25.4232L30.8206 25.9695L28.8578 27.777L26.3424 25.0454Z" fill="white"/>
<path d="M65.625 11.7278L66.5165 11.8639L67.0812 14.5957L68.4357 12.1571L69.3062 12.2901L67.2574 15.7603L66.5443 15.6514L65.625 11.7278Z" fill="white"/>
<path d="M75.195 13.8321L72.5101 13.0346L71.4528 16.5942L74.1632 17.3992L74.3701 16.7026L72.4377 16.1286L72.6598 15.3811L74.3378 15.8795L74.5448 15.1829L72.8667 14.6845L73.0812 13.9624L74.9881 14.5288L75.195 13.8321Z" fill="white"/>
<path d="M82.2181 21.076C81.9808 20.9424 81.7847 20.7752 81.6299 20.5744C81.4751 20.3736 81.3654 20.1576 81.3007 19.9264C81.2378 19.6922 81.222 19.4499 81.2533 19.1997C81.2846 18.9494 81.3653 18.7088 81.4954 18.4776L81.5006 18.4684C81.6307 18.2373 81.7937 18.045 81.9897 17.8915C82.1874 17.735 82.4027 17.6228 82.6357 17.5551C82.8703 17.4843 83.1152 17.4638 83.3702 17.4938C83.627 17.5206 83.8802 17.6043 84.1298 17.7449C84.2808 17.8299 84.411 17.9194 84.5204 18.0134C84.6329 18.1092 84.7278 18.2073 84.8052 18.3077C84.8826 18.4081 84.9471 18.5134 84.9987 18.6236C85.0503 18.7338 85.0923 18.8467 85.1246 18.9623L84.3775 19.2296C84.3154 19.0445 84.2363 18.8823 84.1402 18.7429C84.0472 18.6054 83.919 18.4906 83.7557 18.3987C83.6201 18.3223 83.479 18.2774 83.3324 18.2639C83.1889 18.2521 83.0495 18.269 82.9143 18.3146C82.779 18.3602 82.6536 18.4316 82.5379 18.5289C82.4241 18.623 82.3281 18.7394 82.25 18.8781L82.2448 18.8874C82.1668 19.026 82.1161 19.17 82.093 19.3193C82.0698 19.4686 82.0723 19.612 82.1003 19.7496C82.1315 19.8889 82.1885 20.0183 82.2713 20.138C82.3589 20.2563 82.472 20.3545 82.6107 20.4326C82.7956 20.5367 82.9703 20.5904 83.1348 20.5937C83.3024 20.5988 83.4824 20.5783 83.6746 20.5323L83.87 21.245C83.7365 21.2875 83.6051 21.3191 83.4758 21.3396C83.3466 21.3602 83.2133 21.3663 83.0759 21.358C82.9434 21.3483 82.807 21.3202 82.6668 21.2738C82.5248 21.2304 82.3752 21.1644 82.2181 21.076Z" fill="white"/>
<path d="M86.6675 23.4356C86.7264 23.8289 86.9534 24.1775 87.3487 24.4815C87.5449 24.6325 87.7434 24.7427 87.9441 24.8124C88.147 24.8792 88.3466 24.9011 88.5428 24.878C88.7412 24.8521 88.9334 24.7791 89.1195 24.659C89.3084 24.5411 89.489 24.37 89.6615 24.1457L90.939 22.4848L90.2915 21.9868L88.9946 23.6729C88.8135 23.9084 88.6216 24.0418 88.4189 24.0733C88.2162 24.1048 88.0154 24.044 87.8163 23.8909C87.6173 23.7378 87.5081 23.5579 87.4887 23.3511C87.4714 23.1416 87.5555 22.9162 87.7409 22.6752L89.0216 21.0101L88.3741 20.512L87.0805 22.1939C86.7463 22.6284 86.6086 23.0423 86.6675 23.4356Z" fill="white"/>
<path fill-rule="evenodd" clip-rule="evenodd" d="M93.7048 24.9444L94.8905 26.1591C95.219 26.4957 95.3811 26.8415 95.3768 27.1966C95.3732 27.4966 95.2449 27.7702 94.9918 28.0172L94.9842 28.0246C94.7691 28.2346 94.5413 28.3531 94.3009 28.3802C94.0655 28.4074 93.8334 28.367 93.6047 28.2592L93.2892 29.8347L92.6223 29.1514L92.9168 27.752L92.4685 27.2927L91.6181 28.1227L91.0475 27.5381L93.7048 24.9444ZM93.5628 27.3809C93.7036 27.5252 93.8452 27.6019 93.9876 27.6112C94.1325 27.6229 94.2619 27.5732 94.3758 27.4621L94.3834 27.4546C94.5099 27.3311 94.5653 27.198 94.5495 27.0553C94.5338 26.9125 94.4555 26.769 94.3147 26.6248L93.7477 26.044L92.9847 26.7888L93.5628 27.3809Z" fill="white"/>
<path fill-rule="evenodd" clip-rule="evenodd" d="M99.2425 31.2997L98.2356 29.9331L95.2461 32.1356L95.7307 32.7933L96.6873 32.0885L97.0681 32.6053L96.5834 33.9507L97.1498 34.7194L97.6794 33.2025C97.8911 33.3408 98.1154 33.4127 98.3523 33.4183C98.5942 33.4246 98.8361 33.3386 99.0781 33.1603L99.0867 33.154C99.3714 32.9442 99.5362 32.691 99.5812 32.3943C99.6344 32.0432 99.5215 31.6784 99.2425 31.2997ZM98.1481 32.6134C98.0083 32.5846 97.8786 32.4891 97.759 32.3268L97.2682 31.6606L98.1266 31.0281L98.608 31.6815C98.7276 31.8438 98.7853 31.9967 98.7813 32.1403C98.7772 32.2838 98.704 32.4081 98.5616 32.5129L98.5531 32.5192C98.425 32.6136 98.29 32.645 98.1481 32.6134Z" fill="white"/>
<path d="M102.082 35.5938L103.423 38.053L102.785 38.4008L101.833 36.6543L101.171 37.0149L102.009 38.5518L101.371 38.8997L100.533 37.3627L99.8486 37.736L100.813 39.5058L100.175 39.8537L98.822 37.3713L102.082 35.5938Z" fill="white"/>
<path d="M105.23 42.0814L104.966 41.3758L101.488 42.6757L101.77 43.431L103.981 42.6046L102.4 45.1155L102.643 45.7664L106.121 44.4665L105.839 43.7112L103.697 44.5116L105.23 42.0814Z" fill="white"/>
<path d="M103.945 50.9458C103.888 50.6795 103.884 50.4218 103.932 50.1729C103.98 49.924 104.069 49.6988 104.2 49.4974C104.334 49.2953 104.505 49.1232 104.714 48.9812C104.922 48.8391 105.156 48.7404 105.415 48.6852L105.426 48.6829C105.685 48.6276 105.937 48.6227 106.182 48.6682C106.43 48.7129 106.657 48.8003 106.862 48.9301C107.07 49.0593 107.247 49.2294 107.393 49.4405C107.543 49.6509 107.648 49.8961 107.708 50.1763C107.744 50.3458 107.763 50.5026 107.764 50.6469C107.767 50.7946 107.756 50.9307 107.732 51.0551C107.708 51.1796 107.672 51.2976 107.623 51.4092C107.575 51.5208 107.518 51.6269 107.452 51.7277L106.758 51.3442C106.856 51.1751 106.925 51.0084 106.966 50.8442C107.007 50.6835 107.009 50.5115 106.97 50.3281C106.937 50.176 106.878 50.0404 106.791 49.9215C106.705 49.8061 106.6 49.7127 106.476 49.6414C106.353 49.5702 106.216 49.5233 106.067 49.5009C105.921 49.4778 105.77 49.4828 105.614 49.516L105.604 49.5182C105.448 49.5514 105.307 49.6087 105.179 49.69C105.052 49.7714 104.946 49.8681 104.862 49.9802C104.778 50.0957 104.718 50.224 104.683 50.3653C104.653 50.5093 104.654 50.6591 104.687 50.8147C104.731 51.0222 104.806 51.1888 104.913 51.3144C105.02 51.4434 105.154 51.5648 105.316 51.6786L104.911 52.2965C104.79 52.2245 104.68 52.1469 104.579 52.0635C104.478 51.9802 104.385 51.8842 104.301 51.7757C104.22 51.6699 104.151 51.549 104.093 51.4131C104.032 51.278 103.982 51.1222 103.945 50.9458Z" fill="white"/>
<path d="M108.375 54.5595L106.234 56.1443L104.774 56.2494L104.833 57.0642L106.309 56.958L108.639 58.2209L108.572 57.2949L107.021 56.5025L108.444 55.5119L108.375 54.5595Z" fill="white"/>
<path d="M45.2461 30.8116L47.9165 27.5771L59.9351 42.1343L71.9537 27.5771L74.6242 30.8116L50.5773 59.9377L59.9351 71.2721L69.293 59.9377L62.201 51.3478L64.8715 48.1133L73.2855 58.3045C73.3401 58.3707 73.3907 58.44 73.4373 58.5118L74.6242 59.9494L62.6055 74.5066L74.6207 89.0596L71.9503 92.294L45.2461 59.9494L45.7341 59.3583C45.7622 59.3089 45.7944 59.2619 45.8306 59.218L57.2647 45.3688L45.2461 30.8116Z" fill="white"/>
<path d="M45.2496 89.0596L55.2975 76.8894L57.9679 80.1238L47.92 92.294L45.2496 89.0596Z" fill="white"/>
<path fill-rule="evenodd" clip-rule="evenodd" d="M42.2537 32.7467C33.3314 38.5703 27.4449 48.6526 27.4728 60.101C27.5004 71.4531 33.3365 81.4336 42.1612 87.2363L43.2942 85.864C34.858 80.3927 29.2673 70.9017 29.241 60.0967C29.2145 49.1985 34.8554 39.6094 43.3871 34.1194L42.2537 32.7467ZM54.1867 90.249C56.0992 90.6159 58.0745 90.8057 60.0948 90.8008C62.0081 90.7961 63.8803 90.617 65.6962 90.2785L66.9728 91.8247C64.7576 92.3067 62.4579 92.5633 60.0991 92.569C57.6307 92.575 55.2259 92.3061 52.9135 91.7911L54.1867 90.249ZM46.4151 87.6385C47.6984 88.2719 49.0321 88.8184 50.4085 89.2705L49.2044 90.729C47.8461 90.2505 46.529 89.6845 45.26 89.0376L46.4151 87.6385ZM70.6947 90.7781L69.4884 89.317C70.8695 88.871 72.2078 88.33 73.4958 87.7019L74.6149 89.0573L74.5249 89.1663C73.2907 89.7817 72.012 90.321 70.6947 90.7781ZM77.761 87.3134C86.6974 81.4922 92.5949 71.4018 92.567 59.9427C92.5392 48.5006 86.6103 38.4519 77.668 32.6701L76.534 34.0437C85.0882 39.4928 90.7723 49.0519 90.7988 59.947C90.8254 70.856 85.1734 80.4532 76.6275 85.9404L77.761 87.3134ZM73.3938 32.2925L74.5512 30.8907C73.2742 30.2524 71.9494 29.6957 70.5837 29.2273L69.3756 30.6905C70.7601 31.1317 72.102 31.6683 73.3938 32.2925ZM50.521 30.7365C49.1409 31.1839 47.8035 31.726 46.5166 32.3553L45.3605 30.9549C46.6329 30.3119 47.9534 29.75 49.3151 29.276L50.521 30.7365ZM65.5725 29.7423C63.7476 29.4098 61.8667 29.2383 59.945 29.2429C58.02 29.2476 56.1366 29.4289 54.3102 29.7715L53.0344 28.2261C55.2596 27.7395 57.5703 27.4805 59.9407 27.4747C62.3116 27.4689 64.6238 27.7168 66.8518 28.1928L65.5725 29.7423Z" fill="white"/>
</svg>
