<svg width="50" height="50" viewBox="0 0 50 50" fill="none" xmlns="http://www.w3.org/2000/svg">
<circle cx="25" cy="25" r="25" fill="white"/>
<path d="M17.0057 9.36424L18.4567 7.61719L24.9872 15.4801L31.5178 7.61719L32.9688 9.36424L19.9025 25.0963L24.9872 31.2185L30.072 25.0963L26.2185 20.4566L27.6695 18.7096L32.2414 24.2142C32.2711 24.25 32.2985 24.2874 32.3238 24.3262L32.9688 25.1027L26.4382 32.9656L32.9669 40.8262L31.5159 42.5732L17.0057 25.1027L17.2709 24.7834C17.2861 24.7567 17.3036 24.7313 17.3233 24.7076L23.5362 17.2271L17.0057 9.36424Z" fill="black"/>
<path d="M17.0076 40.8262L22.4673 34.2526L23.9183 35.9996L18.4586 42.5732L17.0076 40.8262Z" fill="black"/>
</svg>
