<svg width="100" height="100" viewBox="0 0 100 100" fill="none" xmlns="http://www.w3.org/2000/svg">
<rect width="100" height="100" rx="50" fill="#F0F0F0"/>
<path d="M49.9998 36.4258L60.191 41.7872L50.0062 23.0083L39.8188 41.7817L49.9998 36.4258Z" fill="black"/>
<path d="M24.9995 51.4672L49.9999 38.3151L74.9999 51.4672V60.9589L55.1266 50.4274V69.0074L49.9011 73.0372L44.6462 69.0074V50.5471L24.9995 60.9589V51.4672Z" fill="black"/>
<path d="M41.6601 54.0187L29.7547 60.3279L24.9995 69.0912L32.8537 70.3755L36.7238 67.9738L43.1685 55.1752L41.6601 54.0187Z" fill="black"/>
<path d="M70.2478 60.3297L58.2125 53.9519L56.7778 55.0582L63.2753 67.9739L67.1458 70.3756L74.9996 69.0913L70.2478 60.3297Z" fill="black"/>
</svg>
