<svg width="90" height="90" viewBox="0 0 90 90" fill="none" xmlns="http://www.w3.org/2000/svg">
<rect width="90" height="90" rx="45" fill="#F0F0F0"/>
<path d="M56.1654 44.3238C60.099 43.5698 63.3771 39.9116 63.3771 34.7454C63.3508 29.1662 59.3189 24 51.2484 24H25.2733L29.3052 29.1662V65.8801H52.1531C60.2302 65.8801 64.3867 60.8385 64.3867 54.5316C64.2359 49.3457 60.676 44.9335 56.1654 44.3238ZM38.2608 31.8673H49.4848C52.5137 31.8673 54.4018 33.6374 54.4018 36.2795C54.4018 38.9216 52.5137 40.6917 49.4848 40.6917H38.2608V31.8673ZM49.8585 58.0915H38.2608V48.4607H49.8585C53.2676 48.4607 55.1558 50.6045 55.1558 53.2531C55.1558 56.2755 53.1365 58.0456 49.8585 58.0456V58.0915Z" fill="black"/>
</svg>
