<svg width="90" height="90" viewBox="0 0 90 90" fill="none" xmlns="http://www.w3.org/2000/svg">
<rect width="90" height="90" rx="45" fill="#F0F0F0"/>
<path d="M39.9555 22.3736C40.6042 20.6743 41.6858 19.647 43.2421 19.2516C46.0198 18.5461 47.302 19.0408 56.7705 24.4715C69.7993 31.9442 68.9141 30.4684 69.0861 45.0053C69.2119 55.6465 69.2042 55.758 68.2165 57.916C66.9918 60.5903 66.4302 61.0148 56.6598 66.6419C47.8195 71.7336 46.5475 72.2585 43.9235 71.8986C41.5408 71.5723 24.8594 62.0551 23.0429 59.9862C21.0385 57.7032 20.8996 56.5762 21.0393 43.739C21.0393 43.739 20.9479 34.3114 21.1672 33C21.3864 31.6886 22.8873 30.3613 22.8873 30.3613C24.4031 28.948 24.8451 28.7572 26.6052 28.7572C29.0316 28.7572 31.054 29.9643 32.0931 32.0332C32.6985 33.2378 32.8075 34.6434 32.808 41.2436C32.8088 50.5785 33.1699 52.2165 35.8956 55.2479C38.3886 58.0206 41.3431 59.4413 44.72 59.4911C49.7855 59.5655 54.1362 57.0399 56.4119 52.7035C57.3538 50.909 57.5111 50.1117 57.516 47.1098C57.5209 44.0159 57.3787 43.3297 56.2922 41.2044C54.6999 38.0914 52.7715 36.6523 47.5846 34.7067C42.5273 32.8098 42.2038 32.9307 42.2038 36.7226C42.2038 38.2854 42.4019 39.43 42.7144 39.6697C42.9954 39.885 44.3569 40.4753 45.7404 40.981C50.2978 42.6463 52.0293 46.109 49.9828 49.4654C47.7566 53.1164 42.9305 53.3092 40.4596 49.8457C39.5736 48.6031 39.5454 48.2351 39.4237 36.3308C39.3166 25.8656 39.3938 23.8441 39.9555 22.3736Z" fill="black"/>
</svg>
