<svg width="100" height="100" viewBox="0 0 100 100" fill="none" xmlns="http://www.w3.org/2000/svg">
<rect width="100" height="100" rx="50" fill="#F0F0F0"/>
<path d="M61.0175 40.2188H56.5674V48.5872H61.0175V40.2188Z" fill="black"/>
<path d="M52.1347 36.283H47.6846V58.516H52.1347V36.283Z" fill="black"/>
<path d="M43.5535 51.8496H38.7842V61.601H43.5535V51.8496Z" fill="black"/>
<path d="M49.9356 16V27.613C39.0672 27.613 29.9719 35.3786 27.933 45.6618L25.3799 46.5838C26.9046 35.6623 35.5567 26.9924 46.496 25.4854L49.9356 16Z" fill="black"/>
<path d="M83.9236 50.0589H72.3107C72.3107 39.1905 64.545 30.0952 54.2618 28.0563L53.3398 25.5032C64.2614 27.0279 72.9312 35.68 74.4382 46.6193L83.9236 50.0589Z" fill="black"/>
<path d="M49.8828 84.0999V72.4869C60.7511 72.4869 69.8465 64.7213 71.8854 54.4381L74.4385 53.5161C72.9137 64.4376 64.2616 73.1075 53.3224 74.6145L49.8828 84.0999Z" fill="black"/>
<path d="M15.877 50.0588H27.4899C27.4899 60.9272 35.2556 70.0225 45.5388 72.0614L46.4607 74.6145C35.5392 73.0898 26.8694 64.4377 25.3624 53.4984L15.877 50.0588Z" fill="black"/>
<path d="M49.9356 16V27.613C39.0672 27.613 29.9719 35.3786 27.933 45.6618L25.3799 46.5838C26.9046 35.6623 35.5567 26.9924 46.496 25.4854L49.9356 16Z" fill="black"/>
<path d="M83.9236 50.0589H72.3107C72.3107 39.1905 64.545 30.0952 54.2618 28.0563L53.3398 25.5032C64.2614 27.0279 72.9312 35.68 74.4382 46.6193L83.9236 50.0589Z" fill="black"/>
<path d="M49.8828 84.0999V72.4869C60.7511 72.4869 69.8465 64.7213 71.8854 54.4381L74.4385 53.5161C72.9137 64.4376 64.2616 73.1075 53.3224 74.6145L49.8828 84.0999Z" fill="black"/>
<path d="M15.877 50.0588H27.4899C27.4899 60.9272 35.2556 70.0225 45.5388 72.0614L46.4607 74.6145C35.5392 73.0898 26.8694 64.4377 25.3624 53.4984L15.877 50.0588Z" fill="black"/>
</svg>
