<svg width="100" height="100" viewBox="0 0 100 100" fill="none" xmlns="http://www.w3.org/2000/svg">
<rect width="100" height="100" rx="50" fill="#F0F0F0"/>
<circle cx="49.999" cy="50" r="25.785" fill="black" stroke="#F0F0F0" stroke-width="2.43"/>
<circle cx="49.999" cy="50" r="28.215" stroke="black" stroke-width="2.43"/>
<path d="M56.884 38.1199C55.75 37.5799 52.5865 36.5899 51.1465 36.1624C51.619 36.1624 52.6315 35.8924 54.2515 36.1624C55.5475 36.3784 56.5465 37.5574 56.884 38.1199Z" fill="#F0F0F0"/>
<path d="M32.1795 52.6325C31.6935 58.7885 30.177 62.9375 29.4795 64.2425V64.985C29.4795 66.1325 31.707 67.8875 35.8245 71.735C39.942 75.5825 54.927 77.135 54.4545 74.5025C53.982 71.87 54.927 68.495 56.412 65.39C57.897 62.285 62.8245 57.0875 64.782 55.13C66.7395 53.1725 69.507 50.2025 69.9795 47.6375C70.452 45.0725 67.752 42.7775 65.322 42.035C62.892 41.2925 60.327 40.28 58.7745 39.74C57.222 39.2 55.602 38.255 51.822 37.1075C48.042 35.96 46.017 36.1625 45.612 36.1625C45.207 36.1625 41.7645 36.2975 37.4445 39.1325C33.1245 41.9675 32.787 44.9375 32.1795 52.6325Z" fill="#F0F0F0"/>
<circle cx="46.4891" cy="43.9249" r="5.4" fill="#F0F0F0" stroke="black" stroke-width="0.81"/>
<circle cx="63.7697" cy="48.6498" r="1.215" fill="black"/>
<path d="M61.4748 54.2526C55.6428 56.3046 51.5298 54.7026 50.2023 53.6451C49.8647 54.2526 52.8348 55.8726 54.5223 55.8726C60.8672 56.5476 69.1023 52.4301 70.5197 49.0551C69.9347 49.9326 67.3068 52.2006 61.4748 54.2526Z" fill="black"/>
<circle cx="46.4895" cy="43.925" r="3.51" fill="black"/>
</svg>
