<svg width="100" height="100" viewBox="0 0 100 100" fill="none" xmlns="http://www.w3.org/2000/svg">
<rect width="100" height="100" rx="50" fill="#F0F0F0"/>
<path fill-rule="evenodd" clip-rule="evenodd" d="M68.4768 55.4756C67.5918 56.0379 66.5495 56.1075 65.7573 55.6585C64.751 55.0875 64.1977 53.7503 64.1977 51.8907V46.3267C64.1977 43.6399 63.1406 41.728 61.373 41.2118C58.3775 40.3348 56.1247 44.018 55.278 45.4012L49.9951 54.009V43.4881C49.9357 41.0675 49.1534 39.6196 47.668 39.183C46.6852 38.8944 45.2147 39.0101 43.7862 41.2068L31.9503 60.3057C30.3657 57.2827 29.5397 53.9167 29.544 50.5C29.544 38.9951 38.7186 29.636 49.9951 29.636C61.2715 29.636 70.4449 38.9951 70.4449 50.5C70.4449 50.5199 70.4499 50.5373 70.4511 50.556C70.4511 50.5759 70.4474 50.5933 70.4486 50.6132C70.5551 52.841 69.8371 54.6123 68.4768 55.4756ZM74.9889 50.5012V50.4428L74.9877 50.3856C74.9245 36.3742 63.7385 25 49.9938 25C36.2133 25 25 36.4389 25 50.5C25 64.5598 36.2133 76 49.9951 76C56.319 76 62.3546 73.5843 66.9877 69.1996C67.9086 68.3289 67.9631 66.8623 67.109 65.9244C66.908 65.7016 66.6648 65.5214 66.3935 65.3943C66.1223 65.2672 65.8286 65.1958 65.5296 65.1842C65.2306 65.1726 64.9322 65.2211 64.6521 65.3268C64.372 65.4326 64.1156 65.5934 63.8981 65.8C60.1427 69.3737 55.1671 71.3649 49.9951 71.364C43.957 71.364 38.5243 68.6784 34.7775 64.4193L45.4511 47.1962V55.136C45.4511 58.9498 46.9228 60.1825 48.1569 60.5433C49.3923 60.904 51.2799 60.6577 53.2617 57.4236L59.1326 47.8592C59.3207 47.5507 59.494 47.2845 59.6525 47.0544V51.8907C59.6525 55.4557 61.0735 58.3067 63.5503 59.7111C65.7833 60.9774 68.5907 60.863 70.8781 59.4126C73.6508 57.6524 75.1449 54.4096 74.9889 50.5012Z" fill="black"/>
</svg>
