<svg width="90" height="90" viewBox="0 0 90 90" fill="none" xmlns="http://www.w3.org/2000/svg">
<rect width="90" height="90" rx="45" fill="#F0F0F0"/>
<path d="M54.5393 62.2823L44.3217 66.6737V66.2345C42.3516 66.7332 40.1691 67.0205 38.102 67.1129C28.4929 67.0205 20.8658 62.049 20.7771 56.1331V53.9369C23.9331 58.4738 30.3578 61.5136 38.102 61.4038C40.7218 61.5136 43.4021 61.1037 45.6541 60.5254L46.5426 58.3292C43.8715 59.1171 40.9561 59.6652 38.102 59.6469C28.4929 59.6652 20.8658 54.6937 20.7771 48.6679V46.911C23.9331 51.1048 30.3441 54.1455 38.102 53.9378C41.5921 54.1455 45.0053 53.4199 47.8749 52.1809L48.3196 49.9847C45.5159 51.447 41.8821 52.2962 38.102 52.1809C28.4929 52.2962 20.8658 47.3246 20.7771 41.2019V39.445C23.9331 43.7367 30.3578 46.7765 38.102 46.911C42.5035 46.7765 46.6762 45.6263 50.0967 43.8364L50.5414 41.201C47.4366 43.4759 42.9043 44.9418 38.102 45.1541C28.4929 44.9418 20.8667 39.9693 20.7771 33.7359C20.8658 27.8072 28.4929 22.8356 38.102 22.7569C43.8303 22.8356 49.1505 24.8213 52.3185 28.0268L52.6269 28.5347L54.8669 28.5438L54.5393 28.0268C51.3888 23.7937 45.0876 21 38.102 21C27.4699 21 19 26.7933 19 33.7359V56.5723C19.3733 63.3493 27.6501 68.8689 38.102 68.8689C45.0053 68.8689 51.2094 66.1851 54.5393 62.2823Z" fill="black"/>
<path d="M50.3831 77.7339L53.9702 62.6637L43.6583 67.0963L49.9357 40.9455H37.8293L40.968 28.0916H79.5253L76.3866 40.9455H63.8337L61.1434 48.0373L75.0414 42.2751L50.3831 77.7339ZM56.6605 59.5607L54.867 68.4258L69.6618 46.2648L57.5563 51.5841L62.9369 39.173H75.0414L77.2833 29.865H42.3132L40.0713 39.173H52.1767L46.3477 63.9942L56.6605 59.5625V59.5607Z" fill="black"/>
</svg>
