<svg width="100" height="100" viewBox="0 0 100 100" fill="none" xmlns="http://www.w3.org/2000/svg">
<circle cx="50" cy="50" r="50" fill="#F0F0F0"/>
<path d="M49.9979 18.0291C67.6545 18.0291 81.969 32.3436 81.969 50.0001C81.969 67.6567 67.6545 81.9712 49.9979 81.9712C32.3414 81.9712 18.0269 67.6567 18.0269 50.0001C18.0269 32.3436 32.3414 18.0291 49.9979 18.0291Z" stroke="black" stroke-width="3" stroke-linecap="round" stroke-linejoin="round"/>
<path d="M49.9954 32.8041C55.7961 32.8041 60.4976 37.5055 60.4976 43.3063C60.4976 49.107 55.7961 53.8085 49.9954 53.8085C44.1946 53.8085 39.4932 49.107 39.4932 43.3063C39.4932 37.5055 44.1946 32.8041 49.9954 32.8041Z" stroke="black" stroke-width="3" stroke-linecap="round" stroke-linejoin="round"/>
<path fill-rule="evenodd" clip-rule="evenodd" d="M40.4506 67.1488L40.4506 67.1488C36.7585 68.9914 33.6896 71.8569 31.5997 75.3895H28.186C30.5469 70.6589 34.3804 66.8254 39.111 64.4645C51.1561 58.4531 65.7941 63.3444 71.8055 75.3895H68.3929C62.7397 65.8122 50.5549 62.1061 40.4506 67.1488ZM39.1117 64.4659L39.1126 64.4678L39.1117 64.4659Z" fill="black"/>
</svg>
