<svg width="100" height="100" viewBox="0 0 100 100" fill="none" xmlns="http://www.w3.org/2000/svg">
<rect width="100" height="100" rx="50" fill="#F0F0F0"/>
<path d="M45.7787 33.4992L37.6094 29.4146L49.7705 23.2876L62.5815 29.6931L53.948 33.4992L49.7705 31.4569L45.7787 33.4992Z" fill="black"/>
<path d="M45.7784 67.8474L37.2378 71.7464L49.7703 77.8734L62.5812 71.6536L54.6904 67.6618L49.7703 69.8898L45.7784 67.8474Z" fill="black"/>
<path d="M67.6872 32.2924L59.0537 36.0985L64.9022 39.4405L25.541 56.8931V65.8979L31.5752 68.8686L40.2086 65.0624L34.5458 61.8133L73.9999 44.4535V35.5415L67.6872 32.2924Z" fill="black"/>
<path d="M58.1252 57.3573L50.2344 60.8849L66.7587 69.3327L73.9996 65.6194V50.3948L66.7587 53.6439V61.8132L58.1252 57.3573Z" fill="black"/>
<path d="M25.541 35.5416V50.6734L32.8748 47.4242V39.2549L41.3226 43.8037L49.3991 40.1832L32.6892 31.8282L25.541 35.5416Z" fill="black"/>
</svg>
