<svg width="100" height="100" viewBox="0 0 100 100" fill="none" xmlns="http://www.w3.org/2000/svg">
<circle cx="50" cy="50" r="50" fill="#F0F0F0"/>
<path d="M36.001 22.4829L38.546 19.4269L50.0003 33.1809L61.4545 19.4269L63.9995 22.4829L41.0818 50.002L50.0003 60.7111L58.9187 50.002L52.1598 41.886L54.7048 38.83L62.7237 48.459C62.7758 48.5215 62.824 48.5869 62.8684 48.6548L63.9995 50.0131L52.5453 63.7671L63.9962 77.5172L61.4512 80.5732L36.001 50.0131L36.4661 49.4546C36.4929 49.4079 36.5235 49.3635 36.558 49.322L47.4552 36.2369L36.001 22.4829Z" fill="black"/>
<path d="M36.0043 77.5172L45.5804 66.0184L48.1254 69.0744L38.5493 80.5732L36.0043 77.5172Z" fill="black"/>
</svg>
