<svg width="98" height="98" viewBox="0 0 98 98" fill="none" xmlns="http://www.w3.org/2000/svg">
<rect width="98" height="98" rx="49" fill="#F0F0F0"/>
<g clip-path="url(#clip0)">
<path d="M33.178 47.5876C33.1779 47.2874 33.2372 46.9902 33.3523 46.7131C33.4675 46.4359 33.6362 46.1842 33.8489 45.9724C34.0616 45.7607 34.3141 45.593 34.5918 45.4791C34.8695 45.3652 35.1669 45.3073 35.4671 45.3087L39.2621 45.3212C39.8672 45.3212 40.4476 45.5615 40.8754 45.9894C41.3033 46.4173 41.5437 46.9976 41.5437 47.6027V61.9532C41.9712 61.8266 42.5195 61.6915 43.1201 61.5506C43.5372 61.4525 43.9088 61.2163 44.1749 60.8805C44.4409 60.5447 44.5857 60.1288 44.5859 59.7004V41.8998C44.5858 41.2946 44.8262 40.7142 45.254 40.2862C45.6819 39.8583 46.2622 39.6178 46.8674 39.6177H50.6702C51.2753 39.6178 51.8557 39.8583 52.2835 40.2863C52.7114 40.7143 52.9518 41.2946 52.9518 41.8998V58.4212C52.9518 58.4212 53.9034 58.0357 54.8311 57.6443C55.1755 57.4986 55.4695 57.2546 55.6762 56.943C55.883 56.6313 55.9934 56.2656 55.9937 55.8916V36.1949C55.9937 35.8953 56.0527 35.5986 56.1673 35.3218C56.282 35.045 56.45 34.7935 56.6618 34.5816C56.8736 34.3698 57.1251 34.2017 57.4019 34.087C57.6787 33.9723 57.9753 33.9133 58.2749 33.9133H62.0777C62.6828 33.9133 63.2632 34.1537 63.6911 34.5815C64.119 35.0094 64.3594 35.5897 64.3595 36.1949V52.4141C67.6562 50.0249 70.9974 47.1511 73.6488 43.6957C74.0335 43.1941 74.2881 42.6051 74.3898 41.9812C74.4915 41.3574 74.4372 40.718 74.2317 40.1202C72.4377 34.8919 69.0726 30.3453 64.5964 27.1021C60.1203 23.8589 54.7516 22.0774 49.2246 22.0012C34.3205 21.801 22.0031 33.9673 22.0045 48.8732C21.9899 53.5899 23.2209 58.2269 25.5732 62.3152C25.8976 62.8744 26.3748 63.3294 26.9489 63.6268C27.5229 63.9242 28.1698 64.0515 28.8137 63.994C29.5332 63.9306 30.4288 63.8412 31.4936 63.7162C31.957 63.6634 32.3848 63.4421 32.6956 63.0943C33.0064 62.7465 33.1784 62.2965 33.1789 61.8301V47.5876" fill="black"/>
<path d="M33.0954 70.6031C37.1037 73.519 41.8404 75.2692 46.7816 75.6602C51.7229 76.0512 56.676 75.0676 61.0929 72.8183C65.5098 70.569 69.2184 67.1417 71.8084 62.9155C74.3984 58.6893 75.7688 53.8291 75.768 48.8724C75.768 48.2536 75.7393 47.6418 75.6979 47.0333C65.881 61.6741 47.755 68.5195 33.0952 70.6036" fill="black"/>
</g>
<defs>
<clipPath id="clip0">
<rect width="53.7635" height="53.7438" fill="black" transform="translate(22.0044 22)"/>
</clipPath>
</defs>
</svg>
