<svg width="100" height="100" viewBox="0 0 100 100" fill="none" xmlns="http://www.w3.org/2000/svg">
<rect width="100" height="100" rx="50" fill="#F0F0F0"/>
<g clip-path="url(#clip0)">
<path fill-rule="evenodd" clip-rule="evenodd" d="M47.3914 64.8243C48.3534 64.8243 49.136 65.6069 49.136 66.5685C49.136 67.5301 48.3534 68.3127 47.3914 68.3127C46.4298 68.3127 45.6471 67.5301 45.6471 66.5685C45.6471 65.6069 46.4298 64.8243 47.3914 64.8243ZM74.7867 54.0196C73.8247 54.0196 73.0421 53.237 73.0421 52.2753C73.0421 51.3133 73.8247 50.5307 74.7867 50.5307C75.7483 50.5307 76.5309 51.3133 76.5309 52.2753C76.5309 53.237 75.7483 54.0196 74.7867 54.0196ZM74.7867 46.8733C71.8081 46.8733 69.3847 49.2967 69.3847 52.2753C69.3847 52.8554 69.481 53.4329 69.6711 53.9943L51.8256 63.4935C50.8118 62.0325 49.1684 61.1664 47.3914 61.1664C45.3324 61.1664 43.4553 62.3443 42.5473 64.1861L26.515 55.734C24.8214 54.8434 23.5534 52.0537 23.6879 49.5147C23.7577 48.1903 24.2156 47.1622 24.9123 46.7653C25.3549 46.5141 25.8872 46.5361 26.4514 46.8317L26.5586 46.8882C30.806 49.1261 44.7092 56.4489 45.2942 56.7208C46.1977 57.1386 46.7 57.308 48.2388 56.5784L76.9776 41.6318C77.3987 41.4728 77.8899 41.0693 77.8899 40.4564C77.8899 39.6061 77.0109 39.271 77.0084 39.271C75.3746 38.4871 72.8615 37.3109 70.411 36.1637C65.1733 33.7111 59.2365 30.9314 56.629 29.5662C54.3782 28.3879 52.5664 29.3811 52.2433 29.582L51.6156 29.8926C39.8818 35.6953 24.1787 43.4724 23.2847 44.0163C21.6838 44.9904 20.6923 46.931 20.564 49.3404C20.3634 53.1597 22.312 57.1411 25.0971 58.6021L42.0495 67.3449C42.4314 69.9901 44.7084 71.9706 47.3914 71.9706C50.3426 71.9706 52.7486 69.5916 52.7931 66.6508L71.4643 56.5319C72.411 57.2719 73.5847 57.6775 74.7867 57.6775C77.7653 57.6775 80.1888 55.254 80.1888 52.2753C80.1888 49.2967 77.7653 46.8733 74.7867 46.8733Z" fill="black"/>
</g>
<defs>
<clipPath id="clip0">
<rect width="59.6632" height="43" fill="black" transform="translate(20.5503 29)"/>
</clipPath>
</defs>
</svg>
