<svg width="100" height="100" viewBox="0 0 100 100" fill="none" xmlns="http://www.w3.org/2000/svg">
<rect width="100" height="100" rx="50" fill="#F0F0F0"/>
<path fill-rule="evenodd" clip-rule="evenodd" d="M34.8718 27.6538V34.3077H32.6538H30.4359V38.7435V43.1794H28.2179H26V49.8333V56.4871H28.2179H30.4359V60.923V65.3588H32.6538H34.8718V72.0127V78.6665H50.3974H65.923V72.0127V65.3588H68.1409H70.3588V60.923V56.4871H72.5768H74.7947V54.2691V52.0512H77.0127H79.2306V49.8333V47.6153H77.0127H74.7947V45.3974V43.1794H72.5768H70.3588V38.7435V34.3077H68.1409H65.923V27.6538V21H50.3974H34.8718V27.6538ZM48.1794 40.9615V52.0512H50.3974H52.6153V40.9615V29.8718H54.8333H57.0512V32.0897V34.3077H61.4871H65.923V38.7435V43.1794H68.1409H70.3588V49.8333V56.4871H68.1409H65.923V60.923V65.3588H61.4871H57.0512V67.5768V69.7947H50.3974H43.7435V67.5768V65.3588H39.3077H34.8718V60.923V56.4871H32.6538H30.4359V49.8333V43.1794H32.6538H34.8718V38.7435V34.3077H39.3077H43.7435V32.0897V29.8718H45.9615H48.1794V40.9615Z" fill="black"/>
</svg>
