<svg width="100" height="100" viewBox="0 0 100 100" fill="none" xmlns="http://www.w3.org/2000/svg">
<rect width="100" height="100" rx="50" fill="#F0F0F0"/>
<path fill-rule="evenodd" clip-rule="evenodd" d="M21.0125 32.0685L39.3247 24.4466C39.8895 24.2115 40.5295 24.5372 40.7695 25.0998C41.8746 27.6897 44.7085 30.4699 49.8017 30.4699C54.8996 30.4699 57.7341 27.6845 58.8369 25.0926C59.0753 24.5322 59.7105 24.2061 60.2743 24.4363L78.9784 32.0725C79.5257 32.296 79.7608 32.943 79.4845 33.4657L74.4244 43.0383C74.2011 43.4607 73.7102 43.6661 73.2526 43.5287L67.4176 41.7755V75C67.4176 75.5523 66.9699 76 66.4176 76H33.7156C33.1633 76 32.7156 75.5523 32.7156 75V41.7755L26.7451 43.5342C26.2887 43.6686 25.8008 43.4629 25.5784 43.0423L20.5127 33.459C20.2377 32.9387 20.4692 32.2946 21.0125 32.0685ZM46.342 38L45.5293 38.9496L49.1871 43.2234L45.7072 47.2893C45.6962 47.3022 45.6864 47.316 45.6778 47.3305L45.5293 47.5041L53.6567 57L54.4694 56.0504L50.8126 51.7778L54.4705 47.5041L54.1092 47.082C54.0951 47.0609 54.0797 47.0406 54.063 47.0211L51.5023 44.0291L50.6895 44.9787L52.8479 47.5006L49.9999 50.8283L47.1518 47.5006L54.4705 38.9496L53.6577 38L49.9999 42.2738L46.342 38ZM48.5884 52.4774L45.5304 56.0504L46.3431 57L49.4012 53.427L48.5884 52.4774Z" fill="black"/>
</svg>
