<svg width="90" height="90" viewBox="0 0 90 90" fill="none" xmlns="http://www.w3.org/2000/svg">
<rect width="90" height="90" rx="45" fill="#F0F0F0"/>
<path d="M58.563 36.7468C57.5949 36.1765 56.3376 36.1765 55.2739 36.7468L47.7287 41.1235L42.6025 43.9777L35.0573 48.3531C34.0905 48.9247 32.8318 48.9247 31.7682 48.3531L25.7707 44.9287C24.8038 44.357 24.1261 43.3106 24.1261 42.17V35.4152C24.1261 34.2733 24.707 33.2268 25.7707 32.6565L31.6713 29.3262C32.6395 28.7559 33.8968 28.7559 34.9605 29.3262L40.8612 32.6565C41.828 33.2268 42.5057 34.2733 42.5057 35.4152V39.7906L47.6318 36.8423V32.4656C47.6318 31.3236 47.0522 30.2772 45.9872 29.7069L35.0573 23.4281C34.0905 22.8573 32.8318 22.8573 31.7682 23.4281L20.6446 29.7069C19.5809 30.2772 19 31.3236 19 32.4656V45.1183C19 46.2602 19.5809 47.3067 20.6446 47.877L31.7682 54.1569C32.7363 54.7272 33.9936 54.7272 35.0573 54.1569L42.6025 49.8757L47.7287 46.926L55.2739 42.6448C56.2408 42.0745 57.498 42.0745 58.563 42.6448L64.4637 45.9751C65.4306 46.5454 66.107 47.5918 66.107 48.7338V55.4885C66.107 56.6305 65.5274 57.6769 64.4637 58.2472L58.563 61.6717C57.5949 62.2433 56.3376 62.2433 55.2739 61.6717L49.3732 58.3427C48.4064 57.7711 47.7287 56.7246 47.7287 55.584V51.2073L42.6025 54.1569V58.5323C42.6025 59.6743 43.1822 60.7207 44.2472 61.291L55.3707 67.571C56.3376 68.1413 57.5949 68.1413 58.6599 67.571L69.7834 61.291C70.7503 60.7207 71.428 59.6743 71.428 58.5323V45.8796C71.428 44.7377 70.8471 43.6912 69.7834 43.1209L58.563 36.7468Z" fill="black"/>
</svg>
