<svg width="90" height="90" viewBox="0 0 90 90" fill="none" xmlns="http://www.w3.org/2000/svg">
<rect width="90" height="90" rx="45" fill="#F0F0F0"/>
<g clip-path="url(#clip0)">
<path d="M61.0058 68.2271L61.0084 68.2234L72.1283 52.7232C72.1286 52.7228 72.1289 52.7224 72.1293 52.7219C73.5958 50.6566 73.7522 47.4813 72.0534 43.599L72.0521 43.5962C69.8743 38.577 64.7458 32.5246 57.6088 27.4051C50.4728 22.2862 43.0714 19.3714 37.6135 18.9207L37.6133 18.9207C33.4126 18.5731 30.4416 19.7277 28.952 21.7921C28.9516 21.7926 28.9513 21.7931 28.9509 21.7936L17.8565 37.2946L17.8547 37.2971C16.3688 39.3599 16.2315 42.5271 17.9083 46.418C20.1134 51.4399 25.2432 57.4919 32.3782 62.6126C39.5146 67.7318 46.8897 70.6436 52.347 71.0943L61.0058 68.2271ZM61.0058 68.2271C59.5441 70.2844 56.5796 71.4423 52.3473 71.0943L61.0058 68.2271ZM30.3032 22.7573L30.3053 22.7543C31.7957 20.6881 34.6183 20.3353 37.4908 20.5725L30.3032 22.7573ZM30.3032 22.7573L19.2093 38.2574C19.2088 38.2581 19.2083 38.2587 19.2079 38.2594C17.7164 40.3259 18.2823 43.1144 19.442 45.7617C21.6022 50.7608 26.6364 56.4693 33.3272 61.2665L33.3274 61.2667C40.0201 66.0627 47.0583 68.9971 52.4964 69.4426C55.3628 69.6817 58.1939 69.3296 59.6591 67.2582C59.6598 67.2572 59.6606 67.2561 59.6613 67.2551L70.1979 52.5681M30.3032 22.7573L70.1979 52.5681M70.1979 52.5681L70.8744 53.0511L71.4555 52.2373L72.0365 51.4234L71.2743 50.8792M70.1979 52.5681L71.2743 50.8792M71.2743 50.8792C72.1009 48.9327 71.5222 46.5359 70.5469 44.261L70.5441 44.2545M71.2743 50.8792L70.5441 44.2545M70.5441 44.2545C68.3588 39.2556 63.3263 33.547 56.6334 28.7509M70.5441 44.2545L56.6334 28.7509M56.6334 28.7509C49.9414 23.9528 42.9292 21.0207 37.4909 20.5725L56.6334 28.7509Z" fill="black" stroke="black" stroke-width="2"/>
<path fill-rule="evenodd" clip-rule="evenodd" d="M29.6481 22.6572C33.2774 17.592 45.5747 20.1926 57.1151 28.4588C68.6555 36.7277 75.0785 47.5552 71.4493 52.6204L60.3528 68.1243C56.7235 73.1895 44.3997 70.589 32.8593 62.3202C21.3189 54.0513 14.8964 43.2262 18.5256 38.161L29.6481 22.6572Z" fill="black"/>
<path fill-rule="evenodd" clip-rule="evenodd" d="M28.8399 21.7149C30.4544 19.4546 33.5756 18.4592 37.6118 18.7821C43.1817 19.2395 50.5544 22.2262 57.6581 27.2848C64.7348 32.3704 69.9282 38.4248 72.1347 43.5373C73.7491 47.2505 73.8027 50.5331 72.1883 52.7934L61.1025 68.2924C59.488 70.5527 56.3399 71.5481 52.3307 71.2252C46.7607 70.7409 39.3611 67.7812 32.2844 62.6957C25.1807 57.637 20.0143 51.5825 17.781 46.4701C16.1665 42.7568 16.1129 39.4742 17.7274 37.2139L28.8399 21.7149ZM70.6548 51.6903V51.6635C71.9463 49.8876 71.6771 47.2505 70.4125 44.2906C68.2868 39.4203 63.3089 33.6888 56.5282 28.8454C49.7743 24.002 42.7513 21.1229 37.4504 20.6924C34.2215 20.4233 31.6656 21.0154 30.374 22.8182L30.3199 22.9257C29.109 24.7285 29.3784 27.2848 30.6431 30.1908C32.7688 35.088 37.7467 40.8194 44.5006 45.6628C51.2544 50.5062 58.277 53.3856 63.5778 53.8161C66.7529 54.0583 69.2553 53.4932 70.5738 51.798L70.6548 51.6635V51.6903ZM53.3802 33.2316C56.7705 35.6533 59.2727 38.5324 60.3221 40.981C60.9409 42.3533 61.1023 43.5642 60.4834 44.3984C59.8914 45.2325 58.6808 45.4747 57.2009 45.3401C54.537 45.1249 51.039 43.6718 47.6486 41.2501C44.2582 38.8284 41.7556 35.9761 40.7062 33.5275C40.1142 32.1552 39.9529 30.9443 40.5448 30.1102C41.1368 29.276 42.3479 29.0339 43.8547 29.1416C46.4917 29.3837 50.0167 30.8099 53.3802 33.2316Z" fill="#F0F0F0"/>
<path d="M27.7441 27.2598C28.0401 34.3365 35.0093 41.0902 40.364 45.6646C47.8175 52.0148 59.8186 56.7777 66.5187 55.7014" stroke="black" stroke-width="0.807234" stroke-linecap="round" stroke-linejoin="round" stroke-dasharray="1.61 1.61 20.18 20.18"/>
</g>
<defs>
<clipPath id="clip0">
<rect width="62" height="62" fill="black" transform="translate(14 14)"/>
</clipPath>
</defs>
</svg>
