<svg width="100" height="100" viewBox="0 0 100 100" fill="none" xmlns="http://www.w3.org/2000/svg">
<rect width="100" height="100" rx="50" fill="#F0F0F0"/>
<path d="M71.8626 41.1779C72.5177 55.6496 61.7258 71.7858 42.6182 71.7858C36.807 71.7858 31.4001 70.0838 26.8457 67.1625C32.3059 67.805 37.7536 66.2911 42.0791 62.9027C37.5749 62.8181 33.776 59.8435 32.4689 55.7562C34.0831 56.0634 35.6692 55.9725 37.1142 55.5807C32.1649 54.5871 28.7514 50.1299 28.8612 45.3624C30.2466 46.1334 31.8357 46.5973 33.5189 46.6506C28.9395 43.5883 27.6419 37.5388 30.3343 32.9123C35.409 39.1374 42.9912 43.2341 51.542 43.6635C50.0406 37.2285 54.9272 31.0317 61.5691 31.0317C64.5249 31.0317 67.2017 32.2792 69.0761 34.2821C71.4207 33.8213 73.6242 32.9656 75.6146 31.7871C74.8435 34.1912 73.2136 36.2067 71.0916 37.4792C73.1728 37.2285 75.1569 36.6768 77 35.8587C75.624 37.9149 73.8781 39.7266 71.8626 41.1779Z" fill="black"/>
</svg>
