<svg width="100" height="100" viewBox="0 0 100 100" fill="none" xmlns="http://www.w3.org/2000/svg">
<rect width="100" height="100" rx="50" fill="#F0F0F0"/>
<path d="M48.599 45.6882C49.8205 47.8485 47.0885 48.5182 45.8063 48.6414C43.8635 48.8312 43.4613 47.7063 43.8408 46.2932C43.9654 45.7873 44.2418 45.3321 44.6325 44.9895C45.0234 44.6467 45.5096 44.433 46.0254 44.3774C46.5336 44.3307 47.0448 44.4288 47.4999 44.6606C47.9551 44.8926 48.3362 45.2487 48.599 45.6882Z" fill="black"/>
<path d="M56.2242 41.691C54.8043 52.6011 73.9462 50.3308 73.5819 59.0141C75.4701 56.5482 76.2819 49.849 70.7233 46.4007C65.7707 43.3261 59.317 45.0084 56.2242 41.691Z" fill="black"/>
<path d="M67.2502 37.5766C67.1255 37.4609 66.997 37.3471 66.8726 37.2333C66.999 37.349 67.1255 37.4704 67.2502 37.5766Z" fill="black"/>
<path d="M71.698 45.5297L71.6867 45.5125C71.5139 45.1901 71.317 44.8813 71.0976 44.5889C70.4523 43.7106 69.5267 43.0812 68.4751 42.8058C67.775 42.6244 67.0592 42.5114 66.3376 42.4683C65.6069 42.4151 64.8611 42.3847 64.1078 42.345C62.5972 42.2614 61.0508 42.1059 59.5403 41.6735C59.1626 41.5654 58.7852 41.4477 58.4207 41.3056C58.2319 41.2373 58.0563 41.1634 57.8694 41.0836C57.6825 41.004 57.4918 40.9128 57.3029 40.8161C56.5927 40.4254 55.9347 39.9454 55.345 39.388C54.1819 38.3012 53.2681 37.0682 52.3523 35.8732C51.489 34.6737 50.5624 33.5214 49.5767 32.4212C48.6041 31.3434 47.4545 30.4413 46.1781 29.7544C44.8563 29.0856 43.4207 28.6737 41.9468 28.5404C43.4759 28.3736 45.0227 28.5632 46.467 29.0943C47.9243 29.6627 49.2566 30.5126 50.3886 31.5961C51.1275 32.2923 51.8214 33.0354 52.4655 33.821C57.2614 32.8726 61.1509 33.7148 64.1398 35.3497L64.2079 35.3839C65.1591 35.9022 66.0508 36.5243 66.8663 37.2389C66.9966 37.3527 67.1251 37.4665 67.2439 37.5822C67.8806 38.1698 68.4731 38.8039 69.0169 39.479L69.0584 39.534C70.8239 41.7797 71.6962 44.1146 71.698 45.5297Z" fill="black"/>
<path d="M71.697 45.5282L71.6855 45.5049L71.697 45.5282Z" fill="black"/>
<path d="M42.1907 29.9458C43.4143 30.1241 44.6624 30.6135 45.4666 31.5467C46.271 32.4799 46.5675 33.6938 46.7997 34.8489C46.9884 35.7442 47.1377 36.6565 47.4889 37.5043C47.6587 37.9178 47.9081 38.2801 48.1157 38.6708C48.2875 38.9951 48.6009 39.2873 48.7218 39.6344C48.7435 39.6843 48.7516 39.7389 48.7451 39.7929C48.7389 39.8469 48.7185 39.8982 48.6859 39.9417C48.2593 40.4158 47.1075 39.8885 46.6732 39.6761C45.9224 39.3022 45.2501 38.7872 44.6926 38.1587C42.9498 36.2146 42.0491 33.4169 42.1039 30.8695C42.116 30.5603 42.145 30.2519 42.1907 29.9458Z" fill="black"/>
<path d="M62.6543 51.8693C60.0108 59.2798 72.0005 64.2514 67.5086 71.7852C72.1176 69.8732 74.3059 64.0977 72.3933 59.5151C70.7204 55.4922 65.7734 54.0259 62.6543 51.8693Z" fill="black"/>
<path d="M46.7969 61.5604C47.5171 61.015 48.3048 60.5654 49.14 60.2232C49.9849 59.8835 50.8617 59.6293 51.7569 59.4645C53.5337 59.125 55.2916 59.0416 56.7681 58.444C57.4976 58.1578 58.1689 57.7401 58.7488 57.2112C59.3101 56.6873 59.7397 56.0372 60.0025 55.3143C60.2716 54.5516 60.381 53.7411 60.3234 52.9339C60.2567 52.0668 60.0613 51.2147 59.7437 50.4056C60.4019 51.0932 60.8813 51.9333 61.1391 52.8513C61.3969 53.7695 61.4255 54.7373 61.2223 55.669C60.9912 56.6555 60.4926 57.5582 59.7816 58.277C59.0779 58.9735 58.2291 59.5046 57.2968 59.8325C56.407 60.1459 55.4789 60.3374 54.5382 60.4015C53.6318 60.4774 52.7557 60.4981 51.8949 60.5493C50.1541 60.6228 48.4347 60.9636 46.7969 61.5604Z" fill="black"/>
<path d="M63.7091 74.5871C63.4428 74.7996 63.1765 75.0254 62.8839 75.2225C62.5894 75.4175 62.2807 75.5899 61.9606 75.7385C61.294 76.0652 60.5611 76.232 59.8195 76.2259C57.8104 76.1881 56.3905 74.6858 55.5599 72.9881C54.9934 71.8312 54.6026 70.5811 53.9303 69.4792C52.9692 67.903 51.3247 66.6341 49.3989 66.8692C48.6134 66.9679 47.877 67.3225 47.4408 68.0073C46.2928 69.796 47.9413 72.3015 50.0428 71.9468C50.2214 71.9195 50.3962 71.8711 50.5638 71.8026C50.7308 71.7313 50.8865 71.6361 51.0265 71.5201C51.3199 71.2746 51.5412 70.9533 51.6665 70.5908C51.8045 70.2127 51.8353 69.8035 51.7551 69.4089C51.6689 68.9966 51.4266 68.6341 51.0792 68.3981C51.4832 68.588 51.7978 68.928 51.9574 69.3465C52.1225 69.7769 52.165 70.2454 52.08 70.6987C51.9974 71.1712 51.7902 71.6129 51.4796 71.9773C51.3147 72.1646 51.1239 72.3275 50.9131 72.4608C50.7042 72.5928 50.4804 72.6991 50.2466 72.7777C49.7723 72.9406 49.2676 72.993 48.7701 72.9313C48.0716 72.8314 47.413 72.5444 46.8632 72.1005C46.2136 71.5845 45.7303 70.9094 45.1429 70.3289C44.4698 69.6194 43.6757 69.0367 42.798 68.6085C42.1927 68.3415 41.5593 68.1443 40.9098 68.0206C40.5831 67.9523 40.2528 67.903 39.9223 67.8613C39.7712 67.8462 39.0311 67.681 38.9272 67.7777C39.9485 66.8333 41.0618 65.9947 42.2503 65.274C43.4707 64.5466 44.781 63.9836 46.1476 63.5993C47.5643 63.1987 49.0462 63.0845 50.5072 63.2636C51.2593 63.3542 51.9958 63.5458 52.6973 63.8326C53.4325 64.1276 54.111 64.5486 54.7025 65.0769C55.2882 65.6309 55.7613 66.2938 56.0961 67.0287C56.3982 67.7165 56.6238 68.4359 56.7682 69.1739C57.1988 71.3797 57.0401 74.7996 59.9158 75.3041C60.0656 75.3333 60.2169 75.3549 60.3689 75.3686L60.839 75.38C61.1623 75.3569 61.4835 75.3105 61.8001 75.2415C62.4561 75.0866 63.0956 74.8672 63.7091 74.5871Z" fill="black"/>
<path d="M47.0001 72.183L46.9248 72.1238L47.0001 72.183Z" fill="black"/>
<path d="M44.4191 41.0496C44.3143 41.4538 44.1315 41.8334 43.8809 42.1668C43.4147 42.7748 42.7973 43.2489 42.091 43.542C41.4558 43.8169 40.7831 43.9945 40.0953 44.0693C39.946 44.0882 39.7913 44.0995 39.6421 44.1109C39.2065 44.1275 38.7877 44.2838 38.4469 44.5569C38.1061 44.83 37.8613 45.2054 37.7483 45.6283C37.6966 45.8388 37.6581 46.0523 37.6331 46.2676C37.5652 46.8251 37.5538 47.4056 37.4934 48.1073C37.3455 49.3016 37.0016 50.4629 36.4757 51.5443C35.7922 52.9896 35.0256 54.1541 35.2031 55.8195C35.3202 56.9007 35.8715 57.6252 36.6041 58.3726C37.9258 59.7307 40.8846 60.3375 40.2238 63.6835C39.8253 65.6806 36.5286 67.7767 31.8951 68.5088C32.3558 68.4385 31.3041 66.6575 31.238 66.5437C30.7415 65.7622 30.1977 65.0263 29.8031 64.1785C29.0289 62.5341 28.6702 60.6316 28.9874 58.8296C29.3216 56.9329 30.7188 55.48 31.88 54.0308C33.2621 52.3068 34.7122 50.0478 35.0332 47.8096C35.1087 47.2672 35.1616 46.5881 35.2824 45.9127C35.3976 45.1647 35.6309 44.4398 35.9735 43.7657C36.2073 43.3234 36.5152 42.9251 36.8835 42.5879C37.0756 42.4089 37.2024 42.1702 37.2434 41.9102C37.2845 41.6502 37.2376 41.3839 37.1101 41.1539L29.7237 27.8084L40.3331 40.9603C40.454 41.1128 40.6066 41.2367 40.7805 41.3231C40.9543 41.4095 41.145 41.4566 41.3388 41.4606C41.5327 41.4649 41.725 41.4262 41.9025 41.3472C42.0797 41.2683 42.2376 41.1511 42.3649 41.004C42.4993 40.8465 42.5754 40.6474 42.5806 40.4401C42.5857 40.2329 42.5196 40.03 42.3931 39.8661C41.7003 38.9765 40.9676 38.0698 40.2576 37.1783L37.5878 33.859L32.2293 27.2318L24.9224 18.0215L32.9166 26.6381L38.6206 32.9732L41.466 36.1484C42.41 37.2163 43.3542 38.25 44.2982 39.3728L44.4531 39.5626L44.4871 39.8564C44.5331 40.2552 44.5101 40.6588 44.4191 41.0496Z" fill="black"/>
<path d="M46.8654 72.0919C46.3529 71.6942 45.8967 71.2275 45.5098 70.7054C45.9249 71.2025 46.378 71.6662 46.8654 72.0919Z" fill="black"/>
</svg>
