<svg width="24" height="24" viewBox="0 0 24 24" fill="none" xmlns="http://www.w3.org/2000/svg">
<path d="M17 17V15C17 14.448 17.448 14 18 14C18.552 14 19 14.448 19 15V17C19 18.105 18.105 19 17 19H7C5.895 19 5 18.105 5 17V7C5 5.895 5.895 5 7 5H9C9.552 5 10 5.448 10 6C10 6.552 9.552 7 9 7H7V17H17Z" fill="#F0F0F0"/>
<path fill-rule="evenodd" clip-rule="evenodd" d="M15.5858 7H12.9998C12.4478 7 11.9998 6.552 11.9998 6C11.9998 5.448 12.4478 5 12.9998 5H17.9998C18.2758 5 18.5258 5.112 18.7068 5.293C18.8878 5.473 18.9998 5.723 18.9998 6V11C18.9998 11.552 18.5518 12 17.9998 12C17.4478 12 16.9998 11.552 16.9998 11V8.414L10.7568 14.657C10.3668 15.047 9.73379 15.047 9.34279 14.657C8.95279 14.267 8.95279 13.633 9.34279 13.243L15.5858 7Z" fill="#F0F0F0"/>
</svg>
